<?xml version="1.0" encoding="UTF-8"?><svg id="Layer_1" xmlns="http://www.w3.org/2000/svg" width="210" height="110" viewBox="0 0 210 110"><defs><style>.cls-1{fill:#ff99c9;}.cls-2{fill:#da7792;}.cls-3{fill:#534741;}</style></defs><path class="cls-3" d="m17.62,47.85c.07-.08.14-.12.22-.12.21,0,.46.08.75.24.29.16.65.24,1.07.24s.74-.16.99-.47c.25-.32.38-.66.38-1.04,0-.34-.07-.74-.22-1.2-.14-.46-.32-.95-.54-1.47-.21-.52-.45-1.06-.7-1.61-.25-.55-.48-1.09-.7-1.61-.21-.52-.39-1.01-.54-1.47-.15-.46-.22-.85-.22-1.18,0-.29.1-.7.31-1.24.21-.54.48-1.08.82-1.62.34-.54.74-1.02,1.19-1.42.45-.4.92-.6,1.4-.6.11,0,.26.01.47.04.21.03.41.07.6.13s.37.14.53.23c.15.09.23.21.23.35,0,.34-.06.56-.17.67-.11.1-.38.16-.81.18-1,.03-1.73.29-2.17.78-.44.49-.66,1.09-.66,1.8,0,.44.13,1,.39,1.67s.54,1.4.86,2.17c.31.78.6,1.58.86,2.4.26.83.39,1.62.39,2.37,0,.14-.04.42-.11.84s-.22.87-.42,1.32c-.21.45-.48.86-.82,1.21s-.79.54-1.34.54c-.14,0-.31-.03-.53-.08-.21-.05-.42-.12-.63-.2-.21-.09-.39-.17-.55-.27s-.25-.18-.29-.27c-.05-.15-.08-.3-.11-.45-.03-.15-.05-.3-.05-.47,0-.19.03-.32.1-.4Z"/><path class="cls-3" d="m28.68,45.44c-.29.16-.54.46-.75.88l-1.14,2.22c-.08.15-.12.32-.14.49-.01.17-.13.26-.34.26-.43,0-.77-.05-1.03-.15-.26-.1-.39-.25-.39-.44,0-.15.08-.31.23-.49.15-.17.33-.4.52-.69.27-.39.58-.86.91-1.41.33-.55.67-1.12,1-1.71.33-.6.66-1.2.98-1.8.32-.6.6-1.16.84-1.67.24-.51.44-.96.59-1.34.15-.38.23-.65.23-.81,0-.34-.26-.8-.78-1.38l-1.87-2.12c-.21-.26-.4-.43-.55-.54-.15-.1-.23-.22-.23-.36,0-.07.06-.15.17-.24s.25-.19.4-.28.31-.17.47-.24c.16-.07.29-.1.4-.1.21,0,.38,0,.5.03.12.02.22.06.31.12s.15.15.21.27c.05.12.12.28.19.49.03.1.13.27.29.51.16.24.32.48.49.72,1.23,1.67,2.3,3.08,3.2,4.22.9,1.14,1.72,2.14,2.46,3s1.45,1.64,2.12,2.34c.68.7,1.42,1.45,2.23,2.25.15.15.3.26.43.31s.25.09.35.13c.1.03.18.08.24.14s.09.17.09.32c0,.07-.04.17-.13.29-.08.13-.19.26-.31.38s-.24.23-.37.32c-.12.08-.23.13-.32.13h-.69c-.12,0-.21-.06-.25-.18s-.11-.23-.18-.33c-.5-.77-1.52-2.02-3.06-3.76h-6.05c-.58,0-1.01.08-1.3.24Zm1.12-2.8c-.2.39-.33.65-.39.77-.06.12-.09.22-.09.31,0,.07.02.12.06.17s.13.07.29.09c.15.02.38.03.69.04.3,0,.73.01,1.28.01.59,0,1.09,0,1.48-.01s.72-.02.96-.04c.24-.02.43-.04.55-.06.12-.03.21-.06.27-.09l-3.58-4.09-1.51,2.92Z"/><path class="cls-3" d="m45.68,49.06c-.08.09-.17.16-.27.22-.1.06-.2.11-.31.14-.11.03-.18.05-.23.05-.08,0-.19-.06-.34-.17-.15-.11-.23-.26-.23-.45,0-.22.01-.55.03-.97.02-.43.05-.91.07-1.46s.04-1.13.06-1.74c.02-.61.02-1.22.02-1.82,0-.89-.01-1.77-.03-2.66-.02-.89-.05-1.76-.08-2.63-.02-.43-.05-.77-.1-1.02-.05-.26-.11-.46-.16-.61-.05-.15-.1-.28-.14-.37-.04-.09-.06-.18-.06-.27s.05-.2.15-.36c.1-.15.21-.31.33-.46.12-.15.25-.29.39-.41.14-.12.24-.18.3-.18.09,0,.22.05.4.14.17.09.29.17.33.22.03.03.08.12.15.26.07.14.14.29.21.45.07.16.13.31.17.45.05.14.07.23.07.28,0,.12-.05.27-.15.45-.1.18-.16.41-.17.7-.03.66-.06,1.24-.08,1.73-.02.49-.05.91-.07,1.27-.02.36-.04.67-.05.92,0,.26-.01.49-.01.72,0,.19.01.32.03.41.02.09.08.13.17.13.08,0,.29-.18.63-.55.34-.37.75-.82,1.22-1.36.47-.54.98-1.12,1.52-1.76.54-.64,1.05-1.23,1.52-1.76s.88-.99,1.22-1.36c.34-.37.55-.55.63-.55.09,0,.22.06.38.18s.32.26.47.41.29.3.4.45c.11.15.17.24.17.29,0,.09-.05.16-.16.22s-.23.11-.38.17-.3.11-.46.18c-.16.07-.29.15-.4.26-.41.39-.87.87-1.37,1.42-.5.55-1,1.1-1.5,1.64-.5.54-.96,1.02-1.39,1.46-.43.43-.79.74-1.06.91v.05c.23.03.5.18.82.43.32.26.67.57,1.04.95s.77.78,1.19,1.23c.42.44.84.86,1.26,1.24.42.38.83.72,1.23,1,.4.28.78.46,1.13.52.21.03.35.09.42.18.07.09.1.21.1.38,0,.09-.08.19-.25.32-.17.13-.36.25-.58.36-.22.11-.43.2-.64.28-.21.08-.35.12-.45.12s-.22-.07-.38-.22c-.16-.14-.35-.33-.56-.56-.21-.23-.45-.49-.72-.79-.27-.3-.55-.61-.86-.93-.75-.78-1.35-1.42-1.8-1.89-.46-.48-.82-.84-1.08-1.1-.27-.26-.46-.42-.59-.5-.13-.08-.25-.11-.35-.11-.15,0-.27,0-.37.03-.09.02-.17.03-.23.05-.02.61-.03,1.23-.03,1.84,0,.61-.01,1.22-.01,1.82v1.87c0,.1-.04.2-.13.28Z"/><path class="cls-3" d="m58.38,34.25c.07-.17.22-.26.45-.26.11,0,.26.05.47.15.21.1.41.23.62.37.21.15.39.3.55.46.16.16.24.31.24.45s-.04.28-.13.42c-.08.15-.17.38-.26.7-.09.32-.18.78-.26,1.38s-.12,1.42-.12,2.45c0,1.09.03,2.04.08,2.85.05.81.21,1.53.47,2.16.11.29.29.57.55.83s.54.5.86.7c.31.2.64.37.97.49.33.12.64.18.91.18.58,0,1.07-.15,1.48-.46.41-.31.75-.71,1.03-1.21.27-.5.49-1.07.65-1.7s.28-1.27.35-1.93.13-1.29.15-1.91c.02-.61.04-1.15.04-1.61,0-.61-.02-1.12-.05-1.53-.03-.41-.06-.74-.09-1s-.06-.45-.09-.59c-.03-.14-.05-.25-.05-.33,0-.22.08-.38.25-.46.17-.08.37-.13.62-.13.29,0,.55.07.79.22.24.15.35.36.35.65,0,.2-.02.55-.07,1.04-.05.49-.1,1.04-.17,1.66-.07.62-.15,1.28-.24,1.98-.09.7-.19,1.37-.29,2.01-.1.64-.2,1.22-.31,1.74-.11.52-.21.92-.3,1.19-.37,1.01-.88,1.8-1.54,2.39-.66.59-1.32,1.03-1.97,1.32-.17.07-.33.11-.48.13s-.3.03-.46.03c-.3,0-.66-.05-1.05-.15-.4-.1-.79-.25-1.18-.45-.39-.2-.75-.44-1.08-.73-.33-.29-.59-.61-.75-.97-.18-.39-.34-.98-.47-1.75-.13-.78-.24-1.68-.32-2.72-.08-1.04-.15-2.18-.18-3.41-.04-1.24-.06-2.5-.06-3.8,0-.39.03-.67.1-.84Z"/><path class="cls-3" d="m76.91,33.55c.14-.03.33-.04.57-.04.58,0,1.12.09,1.61.28.5.19.92.43,1.29.74.37.31.65.65.87,1.04.21.38.32.77.32,1.16,0,.61-.09,1.14-.27,1.57s-.42.8-.7,1.09c-.28.29-.58.52-.9.7s-.62.32-.89.42c-.37.14-.59.23-.66.27s-.11.09-.11.14.06.11.18.18c.12.07.39.25.8.54.41.29.9.64,1.46,1.05.56.41,1.17.86,1.83,1.36.49.36.98.71,1.47,1.06.5.35.97.69,1.42,1.01.45.32.86.61,1.24.87.38.26.69.47.94.64.62.39,1.25.59,1.87.59.06,0,.12.03.17.1.05.07.08.16.08.28,0,.09-.07.21-.19.38-.13.17-.28.34-.46.51s-.35.32-.52.45c-.18.13-.31.19-.4.19-.17,0-.51-.19-1.03-.56-.52-.37-1.13-.84-1.84-1.41s-1.48-1.19-2.31-1.87c-.83-.68-1.65-1.32-2.46-1.92-.81-.6-1.56-1.12-2.27-1.56-.71-.44-1.29-.72-1.75-.82-.03.34-.05.72-.07,1.14-.02.42-.02.83-.02,1.24v.69c0,.7.01,1.27.03,1.71.02.44.05.81.07,1.09.02.28.05.51.07.68.02.17.03.32.03.46,0,.17-.04.29-.12.36-.08.07-.23.1-.45.1-.11,0-.25-.02-.43-.06-.18-.04-.36-.09-.54-.15-.18-.06-.32-.14-.45-.23-.12-.09-.18-.19-.18-.29,0-.08.02-.17.06-.26.04-.08.08-.2.14-.35.05-.14.11-.33.16-.55.05-.22.09-.49.1-.82,0-.14,0-.46.02-.98.01-.52.03-1.13.06-1.83.02-.7.04-1.44.06-2.21.01-.78.02-1.49.02-2.14,0-.29,0-.66-.01-1.1s-.02-.88-.04-1.32c-.02-.44-.05-.82-.09-1.15s-.09-.52-.15-.58c-.32-.2-.48-.46-.48-.77,0-.22.15-.38.46-.46l1.99-.59c.14-.03.27-.06.41-.09Zm-.58,6.76c.05.03.11.05.17.05.08,0,.2-.04.37-.13.17-.08.45-.23.85-.43.14-.07.29-.15.45-.23.16-.08.32-.19.49-.32.17-.13.32-.28.46-.46s.25-.4.34-.65c.17-.56.25-1.13.25-1.71,0-.24-.03-.44-.1-.59s-.15-.3-.24-.43c-.03-.05-.1-.11-.21-.18-.11-.07-.22-.13-.35-.19-.13-.06-.25-.11-.37-.14s-.2-.05-.26-.05-.17.01-.34.04c-.17.03-.34.06-.51.12s-.33.11-.47.18c-.14.07-.21.15-.23.23-.08.39-.14.81-.18,1.27-.05.45-.08.9-.11,1.33-.03.43-.05.84-.06,1.2,0,.37-.01.65-.01.86,0,.14.03.22.08.26Z"/><path class="cls-3" d="m93.81,45.44c-.29.16-.54.46-.75.88l-1.14,2.22c-.08.15-.12.32-.14.49-.01.17-.13.26-.34.26-.43,0-.77-.05-1.03-.15-.26-.1-.39-.25-.39-.44,0-.15.08-.31.23-.49.15-.17.33-.4.52-.69.27-.39.58-.86.91-1.41.33-.55.67-1.12,1-1.71.33-.6.66-1.2.98-1.8.32-.6.6-1.16.84-1.67.24-.51.44-.96.59-1.34.15-.38.23-.65.23-.81,0-.34-.26-.8-.78-1.38l-1.87-2.12c-.21-.26-.4-.43-.55-.54-.15-.1-.23-.22-.23-.36,0-.07.06-.15.17-.24s.25-.19.4-.28.31-.17.47-.24c.16-.07.29-.1.4-.1.21,0,.38,0,.5.03.12.02.22.06.31.12s.15.15.21.27c.05.12.12.28.19.49.03.1.13.27.29.51.16.24.32.48.49.72,1.23,1.67,2.3,3.08,3.2,4.22.9,1.14,1.72,2.14,2.46,3s1.45,1.64,2.12,2.34c.68.7,1.42,1.45,2.23,2.25.15.15.3.26.43.31s.25.09.35.13c.1.03.18.08.24.14s.09.17.09.32c0,.07-.04.17-.13.29-.08.13-.19.26-.31.38s-.24.23-.37.32c-.12.08-.23.13-.32.13h-.69c-.12,0-.21-.06-.25-.18s-.11-.23-.18-.33c-.5-.77-1.52-2.02-3.06-3.76h-6.05c-.58,0-1.01.08-1.3.24Zm1.12-2.8c-.2.39-.33.65-.39.77-.06.12-.09.22-.09.31,0,.07.02.12.06.17s.13.07.29.09c.15.02.38.03.69.04.3,0,.73.01,1.28.01.59,0,1.09,0,1.48-.01s.72-.02.96-.04c.24-.02.43-.04.55-.06.12-.03.21-.06.27-.09l-3.58-4.09-1.51,2.92Z"/><path class="cls-3" d="m15.84,59.9c.17-.64.4-1.18.69-1.63.28-.45.61-.82.97-1.11.36-.29.74-.52,1.13-.69.39-.17.77-.29,1.15-.35.38-.06.71-.1,1-.1.44,0,.79.09,1.03.28.24.19.36.37.36.55,0,.07-.03.16-.09.26s-.14.2-.23.29-.18.17-.28.24c-.1.06-.18.1-.25.1s-.12-.04-.18-.12c-.06-.08-.13-.17-.21-.27-.08-.1-.18-.19-.29-.27-.12-.08-.26-.12-.43-.12-.51,0-.95.1-1.32.29-.37.19-.7.44-.96.74-.27.3-.49.64-.66,1.01-.17.38-.3.75-.4,1.11-.09.36-.16.7-.2,1.01-.04.31-.05.56-.05.73,0,.34.07.73.2,1.16.13.43.32.83.56,1.21.24.38.54.69.88.94s.72.38,1.13.38c.38,0,.73-.07,1.04-.22.31-.15.59-.31.82-.49.24-.18.44-.35.61-.49.17-.15.3-.22.4-.22.11,0,.19.04.25.11.06.07.09.16.09.26,0,.05-.04.13-.1.24-.07.11-.16.24-.28.38-.12.14-.26.29-.41.43-.15.15-.32.27-.5.38-.11.07-.25.14-.43.2-.18.06-.38.12-.58.17-.21.05-.43.09-.67.11-.23.03-.45.04-.66.04-.3,0-.64-.07-1.03-.21-.39-.14-.76-.38-1.11-.71-.35-.33-.64-.78-.88-1.32-.24-.55-.36-1.23-.36-2.04,0-.86.09-1.61.26-2.24Z"/><path class="cls-3" d="m24.93,59.79c.15-.6.38-1.15.71-1.64.33-.49.75-.9,1.26-1.21s1.13-.47,1.86-.47c.42,0,.82.09,1.2.27.38.18.71.46,1,.85.28.38.51.87.68,1.46.17.59.25,1.3.25,2.11s-.11,1.46-.32,2.06c-.22.6-.5,1.1-.86,1.51-.36.41-.77.71-1.23.93-.46.21-.94.32-1.43.32-.39,0-.79-.09-1.19-.28-.4-.19-.76-.47-1.08-.84-.32-.37-.58-.83-.78-1.39-.2-.55-.3-1.19-.3-1.92,0-.58.07-1.16.22-1.76Zm1.03,2.4c.07.4.21.8.4,1.19.2.39.46.74.8,1.03.34.29.77.44,1.3.44.22,0,.47-.05.74-.14.27-.09.54-.27.78-.53.25-.26.45-.61.62-1.07.16-.45.25-1.03.25-1.74s-.07-1.34-.21-1.83c-.14-.49-.32-.89-.54-1.19-.22-.3-.47-.52-.76-.65-.29-.13-.58-.2-.89-.2-.41,0-.78.1-1.11.31-.33.21-.6.48-.82.82-.22.34-.39.74-.51,1.2-.12.46-.17.94-.17,1.45,0,.21.04.52.11.92Z"/><path class="cls-3" d="m35.41,59.54c-.03-.85-.07-1.48-.12-1.88-.01-.07-.03-.14-.05-.19-.02-.06-.06-.11-.13-.14-.16-.09-.24-.2-.24-.32,0-.16.09-.32.28-.47.18-.15.4-.28.64-.4.24-.12.49-.21.75-.28.26-.07.46-.11.59-.11.27,0,.59.04.95.11.36.08.69.19,1,.33.14.07.27.18.41.33.14.15.26.32.37.5.11.18.2.37.27.56.07.19.1.37.1.54,0,.82-.09,1.39-.27,1.69-.11.19-.24.39-.41.61-.17.22-.35.42-.53.62-.18.19-.36.36-.52.48-.16.13-.29.19-.37.19s-.19-.02-.31-.07c-.12-.05-.24-.1-.35-.16-.11-.06-.21-.12-.29-.19-.08-.07-.12-.12-.12-.16,0-.06.03-.11.08-.15.05-.04.15-.08.3-.11.51-.12.91-.36,1.2-.74.3-.38.44-.79.44-1.25,0-.18-.02-.39-.06-.64-.04-.25-.1-.5-.2-.73s-.22-.44-.39-.6c-.16-.16-.37-.25-.61-.25s-.45.04-.64.11c-.2.07-.4.18-.61.32-.02.2-.04.44-.06.71-.02.28-.04.56-.06.86-.02.3-.03.6-.04.89-.01.29-.02.56-.02.79v4.66c0,.65-.07,1.12-.2,1.43-.13.31-.36.46-.69.46-.18,0-.27-.09-.27-.26,0-.05,0-.1.02-.16.02-.06.04-.14.06-.24.03-.1.05-.24.06-.41s.02-.4.02-.68v-2.63c0-1.14-.01-2.14-.04-2.99Z"/><path class="cls-3" d="m47.55,60.94s-.03.09-.09.17c-.06.08-.13.16-.21.24-.08.08-.17.15-.25.21-.08.06-.14.09-.2.09-.47.05-.92.07-1.32.08s-.77.01-1.08.03c0,1.41.25,2.47.74,3.18.5.71,1.29,1.07,2.37,1.07.23,0,.39.02.47.07s.12.15.12.3c0,.09-.08.19-.24.28s-.44.14-.84.14c-.6,0-1.11-.07-1.53-.22-.42-.15-.78-.34-1.06-.59-.29-.25-.51-.53-.67-.86-.16-.32-.29-.66-.37-1.02-.08-.36-.14-.72-.16-1.08-.02-.36-.03-.71-.03-1.04,0-1.18.1-2.16.29-2.96s.45-1.43.77-1.92.68-.83,1.1-1.04c.42-.21.85-.31,1.29-.31s.74.04.9.11c.16.08.24.21.24.42,0,.26-.1.39-.3.39h-.93c-.25,0-.5.06-.74.18s-.45.34-.65.66c-.2.32-.36.77-.5,1.33-.14.56-.23,1.29-.27,2.17.08-.08.18-.15.3-.2.12-.05.25-.08.41-.08h2.14c.2,0,.3.07.3.21Z"/><path class="cls-3" d="m51.55,59.22c0-.22,0-.44,0-.66,0-.4-.07-.69-.21-.86-.14-.18-.3-.3-.47-.38-.17-.08-.33-.14-.47-.2-.14-.06-.21-.16-.21-.32,0-.08.06-.17.17-.26l.57-.51c.08-.08.16-.14.21-.16.06-.02.11-.04.17-.04.06,0,.12.02.18.06.06.04.13.12.21.24.61.81,1.24,1.62,1.88,2.44s1.24,1.55,1.8,2.22,1.03,1.24,1.44,1.71c.41.47.68.78.83.92.08-.6.15-1.17.18-1.72.04-.55.06-1.11.06-1.69,0-.46-.02-.86-.05-1.2-.03-.34-.06-.63-.1-.86-.03-.23-.06-.42-.09-.56-.03-.14-.05-.25-.05-.34,0-.11.05-.19.13-.26.08-.06.18-.11.29-.15.12-.04.24-.06.36-.07.13-.01.24-.02.35-.02.15,0,.25.05.3.15.05.1.08.21.08.34,0,.12-.03.31-.08.58-.05.27-.11.64-.17,1.09-.06.46-.12,1.03-.17,1.72s-.08,1.51-.08,2.48c0,.29,0,.61.02.94.01.33.02.69.02,1.07,0,.12-.05.24-.14.38s-.2.26-.32.37-.24.21-.36.28-.2.11-.24.11c-.05,0-.1-.06-.13-.19-.04-.13-.08-.29-.13-.49-.05-.2-.13-.42-.23-.67-.1-.25-.25-.49-.43-.74-.41-.54-.84-1.07-1.27-1.6-.44-.52-.85-1.01-1.23-1.46s-.73-.86-1.04-1.21c-.31-.35-.55-.63-.7-.83-.03.49-.06,1-.08,1.53-.02.52-.03,1.03-.04,1.53,0,.49-.01.96-.02,1.39,0,.43,0,.79,0,1.08,0,.26,0,.52.02.79,0,.26.02.47.02.61,0,.09-.02.19-.06.29s-.11.17-.23.2c-.25.07-.45.12-.58.16-.13.04-.26.05-.37.05-.2,0-.3-.08-.3-.25,0-.09.03-.19.08-.27.05-.09.11-.2.18-.34.07-.13.13-.31.2-.54.06-.22.11-.51.13-.86l.19-4.36c.01-.22.02-.44.02-.66Z"/><path class="cls-3" d="m63.28,66.37c-.12,0-.2-.04-.24-.11-.04-.08-.06-.19-.06-.33,0-.61.02-1.25.05-1.91.03-.66.05-1.36.05-2.1v-1.02c0-.36,0-.72,0-1.08,0-.35-.01-.68-.02-.99-.01-.31-.02-.57-.03-.79,0-.14-.03-.26-.1-.36-.07-.1-.15-.19-.24-.26-.09-.08-.17-.15-.24-.22-.07-.07-.1-.15-.1-.25,0-.04.02-.09.07-.18.05-.08.11-.17.19-.26.08-.09.17-.17.28-.24.1-.07.22-.11.33-.11.09,0,.21.02.35.07.14.05.27.1.4.17.13.06.23.13.32.2.09.07.13.14.13.19,0,.11-.04.26-.12.46-.08.2-.12.44-.13.72,0,.42,0,.86,0,1.32,0,.46-.02.91-.04,1.34h4.21c.01-.24.02-.5.02-.79,0-.29,0-.59,0-.9,0-.41-.02-.79-.05-1.13-.03-.34-.05-.59-.05-.76,0-.08.05-.16.16-.23.11-.07.23-.13.37-.19.14-.05.29-.09.43-.12s.27-.04.36-.04c.21,0,.32.08.32.25,0,.05-.01.1-.04.15-.03.05-.05.12-.09.19-.03.08-.07.17-.11.29-.04.12-.08.27-.11.46-.03.21-.06.44-.08.69-.02.25-.04.5-.05.75-.01.25-.02.5-.02.74,0,.24,0,.45,0,.63.08-.01.17-.02.26-.03.09,0,.18,0,.26,0s.15.02.2.04c.05.03.07.1.07.22,0,.11-.03.25-.09.43-.06.18-.16.27-.28.27-.03,0-.07,0-.11-.02s-.09-.02-.14-.02c-.11,0-.16.07-.16.21l-.03,3.48c0,.07-.01.16-.04.26-.03.1-.06.2-.1.3-.04.1-.09.19-.15.26-.06.07-.12.11-.2.11-.15,0-.25-.03-.31-.09-.06-.06-.09-.18-.1-.37l-.16-4.11c-.29,0-.64,0-1.05.03-.42.02-.84.04-1.26.06-.42.02-.81.06-1.16.1-.35.04-.6.09-.75.13-.03.09-.05.2-.06.33-.01.12-.02.23-.02.33v3c0,.55-.24.83-.71.83Z"/><path class="cls-3" d="m74.82,63.72c-.2.11-.38.31-.52.61l-.79,1.53c-.05.11-.08.22-.09.34s-.09.18-.24.18c-.29,0-.53-.04-.71-.11-.18-.07-.27-.17-.27-.3,0-.11.05-.22.16-.34.11-.12.23-.28.36-.48.19-.27.4-.59.63-.97.23-.38.46-.77.7-1.18.23-.41.46-.83.68-1.24s.42-.8.58-1.16c.17-.35.31-.66.41-.93s.16-.45.16-.56c0-.24-.18-.55-.54-.95l-1.3-1.46c-.15-.18-.27-.3-.38-.37s-.16-.15-.16-.25c0-.05.04-.1.12-.17.08-.06.17-.13.28-.19.11-.06.21-.12.32-.17.11-.05.2-.07.28-.07.15,0,.26,0,.35.02.08.01.16.04.21.08.06.04.11.1.14.19s.08.19.13.33c.02.07.09.19.2.35.11.17.22.33.34.49.85,1.15,1.59,2.12,2.21,2.91s1.19,1.48,1.7,2.07c.51.59,1,1.13,1.47,1.61.47.48.98,1,1.54,1.55.11.11.21.18.3.21s.18.06.25.09.12.06.17.1c.04.04.06.11.06.22,0,.05-.03.11-.09.2-.06.09-.13.18-.21.26-.08.09-.17.16-.25.22-.08.06-.16.09-.22.09h-.47c-.08,0-.14-.04-.17-.12s-.07-.16-.13-.23c-.35-.53-1.05-1.39-2.12-2.59h-4.19c-.4,0-.7.06-.9.17Zm.78-1.93c-.14.27-.23.45-.27.53-.04.08-.06.15-.06.21,0,.05.01.09.04.11s.09.05.2.06.26.02.47.03c.21,0,.51,0,.89,0,.41,0,.75,0,1.03,0,.27,0,.5-.01.67-.03.17-.01.29-.03.38-.04.08-.02.15-.04.19-.06l-2.48-2.82-1.04,2.01Z"/><path class="cls-3" d="m90.22,62.74c.07-.05.23-.07.46-.07.06,0,.12.01.16.04.04.02.08.09.1.19s.04.25.05.46c0,.21,0,.5,0,.87,0,.79.02,1.43.07,1.91.05.49.07.9.07,1.24,0,.16-.03.28-.09.35-.06.07-.18.11-.37.11-.06,0-.12-.02-.16-.05-.04-.04-.08-.1-.13-.2s-.08-.24-.12-.43c-.04-.19-.08-.44-.12-.74s-.2-.46-.47-.46c-.04,0-.12.01-.23.04-.11.02-.24.05-.39.07-.15.02-.31.05-.47.07-.17.02-.33.04-.47.04-.73,0-1.33-.15-1.79-.46-.47-.31-.84-.68-1.12-1.12-.27-.44-.47-.9-.58-1.38-.11-.48-.17-.91-.17-1.27,0-.73.1-1.45.3-2.15s.51-1.33.94-1.89c.43-.55.97-1,1.62-1.35.65-.35,1.43-.52,2.34-.52.6,0,1.06.07,1.38.22.32.15.47.38.47.7,0,.08-.03.17-.09.26-.06.09-.14.17-.22.23-.08.06-.17.12-.25.16-.08.04-.15.06-.21.06-.07,0-.15-.04-.23-.11-.08-.07-.24-.22-.47-.46-.11-.11-.21-.17-.3-.2s-.21-.04-.35-.04c-.52,0-1,.17-1.46.52-.46.35-.86.79-1.21,1.31s-.62,1.11-.82,1.74c-.2.63-.3,1.23-.3,1.79,0,.64.06,1.15.18,1.55s.29.71.51.93c.22.22.47.37.75.45.29.08.59.12.92.12.28,0,.54-.04.78-.11s.44-.17.62-.29c.17-.12.31-.25.41-.39.1-.14.16-.28.18-.42l.13-1.06c.02-.11.07-.18.14-.23Z"/><path class="cls-3" d="m98.84,60.94s-.03.09-.09.17c-.06.08-.13.16-.21.24-.08.08-.17.15-.25.21-.08.06-.14.09-.2.09-.47.05-.92.07-1.32.08s-.77.01-1.08.03c0,1.41.25,2.47.74,3.18.5.71,1.29,1.07,2.37,1.07.23,0,.39.02.47.07s.12.15.12.3c0,.09-.08.19-.24.28s-.44.14-.84.14c-.6,0-1.11-.07-1.53-.22-.42-.15-.78-.34-1.06-.59-.29-.25-.51-.53-.67-.86-.16-.32-.29-.66-.37-1.02-.08-.36-.14-.72-.16-1.08-.02-.36-.03-.71-.03-1.04,0-1.18.1-2.16.29-2.96s.45-1.43.77-1.92.68-.83,1.1-1.04c.42-.21.85-.31,1.29-.31s.74.04.9.11c.16.08.24.21.24.42,0,.26-.1.39-.3.39h-.93c-.25,0-.5.06-.74.18s-.45.34-.65.66c-.2.32-.36.77-.5,1.33-.14.56-.23,1.29-.27,2.17.08-.08.18-.15.3-.2.12-.05.25-.08.41-.08h2.14c.2,0,.3.07.3.21Z"/><path class="cls-3" d="m102.83,59.22c0-.22,0-.44,0-.66,0-.4-.07-.69-.21-.86-.14-.18-.3-.3-.47-.38-.17-.08-.33-.14-.47-.2-.14-.06-.21-.16-.21-.32,0-.08.06-.17.17-.26l.57-.51c.08-.08.16-.14.21-.16.06-.02.11-.04.17-.04.06,0,.12.02.18.06.06.04.13.12.21.24.61.81,1.24,1.62,1.88,2.44s1.24,1.55,1.8,2.22,1.03,1.24,1.44,1.71c.41.47.68.78.83.92.08-.6.15-1.17.18-1.72.04-.55.06-1.11.06-1.69,0-.46-.02-.86-.05-1.2-.03-.34-.06-.63-.1-.86-.03-.23-.06-.42-.09-.56-.03-.14-.05-.25-.05-.34,0-.11.05-.19.13-.26.08-.06.18-.11.29-.15.12-.04.24-.06.36-.07.13-.01.24-.02.35-.02.15,0,.25.05.3.15.05.1.08.21.08.34,0,.12-.03.31-.08.58-.05.27-.11.64-.17,1.09-.06.46-.12,1.03-.17,1.72s-.08,1.51-.08,2.48c0,.29,0,.61.02.94.01.33.02.69.02,1.07,0,.12-.05.24-.14.38s-.2.26-.32.37-.24.21-.36.28-.2.11-.24.11c-.05,0-.1-.06-.13-.19-.04-.13-.08-.29-.13-.49-.05-.2-.13-.42-.23-.67-.1-.25-.25-.49-.43-.74-.41-.54-.84-1.07-1.27-1.6-.44-.52-.85-1.01-1.23-1.46s-.73-.86-1.04-1.21c-.31-.35-.55-.63-.7-.83-.03.49-.06,1-.08,1.53-.02.52-.03,1.03-.04,1.53,0,.49-.01.96-.02,1.39,0,.43,0,.79,0,1.08,0,.26,0,.52.02.79,0,.26.02.47.02.61,0,.09-.02.19-.06.29s-.11.17-.23.2c-.25.07-.45.12-.58.16-.13.04-.26.05-.37.05-.2,0-.3-.08-.3-.25,0-.09.03-.19.08-.27.05-.09.11-.2.18-.34.07-.13.13-.31.2-.54.06-.22.11-.51.13-.86l.19-4.36c.01-.22.02-.44.02-.66Z"/><path class="cls-3" d="m161.31,53.03c-.3.34-.1.25.59-.25.22-.05.45-.05.66.03-.28-.08-.24-.06.09.06.24.21.25.22.03.02-.1-.1-.2-.21-.29-.32.18.24.19.24.02,0-.15-.25-.32-.48-.48-.73-.81-1.24-1.62-2.48-2.43-3.72-.97-1.48-3.64-1.9-4.5,0-.61,1.35-1.23,2.69-1.83,4.05-.69,1.58-1.09,3.05-1.23,4.77-.23,2.74-.32,5.74,1.19,8.16,1.2,1.92,4.11,1.55,4.76-.62.92-3.05.96-6.28.29-9.38-.29-1.33-1.92-2.24-3.21-1.82-1.41.46-2.13,1.78-1.82,3.21.07.34.14.69.2,1.04-.07-.48.03.26.03.35.06.65.07,1.31.05,1.97-.01.3-.04.61-.06.91-.04.32-.04.35,0,.08-.02.13-.04.26-.06.38-.11.64-.26,1.26-.45,1.88l4.76-.62c-.07-.11-.44-.93-.25-.4-.08-.22-.14-.43-.2-.66-.02-.09-.14-.87-.12-.57s-.03-.51-.03-.59c-.04-1.1.02-2.21.12-3.31.01-.13.02-.26.04-.39-.04.26-.04.23.01-.08.05-.26.1-.51.17-.76.1-.35.22-.69.35-1.03-.16.38.16-.34.17-.37.53-1.19,1.07-2.37,1.61-3.56h-4.5c1.18,1.81,2.26,3.74,3.63,5.41,1.48,1.8,4.68,2.66,6.34.55.84-1.07,1.12-2.66,0-3.69-.94-.86-2.79-1.15-3.69,0h0Z"/><path class="cls-3" d="m155.77,60.2l-.42-1.47c-.38-1.31-1.86-2.26-3.21-1.82s-2.17,1.79-1.82,3.21c.25,1.03.64,2,1.08,2.96.54,1.17,2.16,1.53,3.26,1.07s1.99-1.86,1.51-3.08c-.38-.98-.43-2.05-.79-3.03-.4-1.1-1.01-2.11-1.5-3.17-.11-.23-.22-.47-.32-.71-.04-.1-.09-.2-.13-.3.12.28.12.29,0,0-.19-.48-.38-.96-.56-1.45-.39-1.04-.74-2.1-1.1-3.15-.44-1.29-1.81-2.27-3.21-1.82-1.28.41-2.29,1.82-1.82,3.21.74,2.18,1.5,4.34,2.44,6.44.21.47.44.94.67,1.39.13.26.27.51.4.76.07.14.42.62.09.16.25.35.28,1.01.36,1.42.11.55.22,1.09.43,1.61l4.76-2.01c-.29-.63.18.51-.06-.14-.06-.16-.12-.32-.18-.49-.12-.36-.22-.72-.32-1.09l-5.03,1.39.42,1.47c.38,1.31,1.86,2.26,3.21,1.82s2.23-1.8,1.82-3.21h0Z"/><path class="cls-3" d="m151.71,68.7c-2.93-1.75-6.57-1.92-9.59-.29-1.53.82-2.57,2.08-3.57,3.45-.36.48-.71,1.1-1.27,1.37-.82.39-2.07.3-2.94.27-.95-.03-1.87-.17-2.8-.42-.48-.13-.96-.27-1.42-.45-.14-.05-1.12-.54-.94-.28-.02.19-.01.18.03-.03.04-.23.11-.44.2-.66.16-.45.37-.89.56-1.33.41-.97.87-1.93,1.24-2.91.68-1.82.28-3.55-.71-5.16-1.15-1.89-2.4-3.73-3.6-5.6-1.46-2.27-4.63-1.23-4.86,1.32-.15,1.64-.01,3.95-.57,5.4l.67-1.15c-.1.11-.64.3-.87.46-.52.35-.94.75-1.34,1.23-.71.86-1.19,1.86-1.56,2.91-.8,2.3-1.07,5.06-.35,7.41,1.43,4.71,5.9,7.25,10.53,7.81,2.41.29,4.94-.15,7.32.3s2.21,2.66,3.72,4.17c1.66,1.66,3.76,1.57,5.92,1.81,1.8.2,3.08,1.39,3.62,3.11l4.36-2.54c-1.53-1.54-2.83-3.19-3.97-5.03l-4.09,3.16c1.26,1.11,2.58,2.14,3.95,3.11,2.04,1.44,4.2-.93,3.83-2.94-.45-2.43-2.31-3.66-4.05-5.14-1.87-1.59-2.49-4.15-3.99-6.05-.38,1.45-.77,2.9-1.15,4.36,3.68-1.4,6.63-3.94,8.45-7.45,1.15-2.21-1.24-5.01-3.57-3.57-1.53.95-3.61.58-5.28,1.33-1.06.48-1.86,1.19-2.53,2.14-.23.33-.46.72-.63,1.08-.36.74-.05.23-.31.39-1.11.68-2.1.98-2.49,2.39-.34,1.24.24,2.43.73,3.52,1.06,2.34,2.51,4.45,4.19,6.38,1.92,2.21,5.79-.72,4.09-3.16-2.64-3.8-5.03-7.64-9.95-8.5-2.12-.37-4.27-.28-6.38-.6-1.45-.22-4.29-1.04-4.78-2.71v1.39c.17-1.14,1.02-2.4,1.53-3.46.61-1.27,1.22-2.53,1.84-3.8,1.12-2.33-1.17-4.84-3.57-3.57-2.27,1.2-3.8,3.35-4.39,5.83-.77,3.26,4.26,4.66,5.03,1.39.3-1.25.85-2.11,1.99-2.72l-3.57-3.57c-.8,1.66-1.6,3.31-2.4,4.97s-1.94,3.32-1.43,5.15c.82,2.93,4.35,5.11,7.1,5.86s5.62.37,8.36,1.01c3.03.71,4.46,3.58,6.12,5.96l4.09-3.16c-.78-.89-1.46-1.82-2.07-2.83-.35-.59-1.4-1.99-1.42-2.69l-.36,1.32.18-.31-.94.94c.87-.54,1.73-.73,2.45-1.56.56-.65.88-1.86,1.59-2.31.66-.42,1.88-.37,2.62-.49,1.15-.18,2.21-.48,3.2-1.1l-3.57-3.57c-1.17,2.25-2.92,4.14-5.33,5.06-1.95.74-2.42,2.75-1.15,4.36,1.35,1.71,1.79,3.88,3.36,5.48,1.04,1.06,3.06,1.86,3.35,3.42l3.83-2.94c-1.01-.71-1.96-1.48-2.89-2.29-2.13-1.87-5.73.52-4.09,3.16,1.36,2.2,2.96,4.25,4.79,6.09,1.79,1.8,5.15-.02,4.36-2.54-.74-2.35-2.19-4.42-4.33-5.7-1.93-1.16-3.77-.92-5.85-1.31-1.01-.19-.94-.96-1.37-1.8-.57-1.1-1.46-2.03-2.49-2.71-2.18-1.44-4.78-1.53-7.3-1.51-4.29.03-10.53-.76-9.95-6.51.1-.96.31-2.21.89-3.03.52-.73,1.45-.89,2.07-1.57.95-1.03.93-2.43,1.05-3.75.13-1.4.25-2.8.38-4.19l-4.86,1.32c1.2,1.87,2.81,3.78,3.73,5.8.33.72.05.94-.28,1.72-.42,1-.87,1.98-1.27,2.99-.81,2-.9,4.23.66,5.91,1.32,1.43,3.66,2.12,5.5,2.54,3.75.85,8.57.95,11.22-2.28.92-1.12,1.62-2.55,3.01-3.16s2.87-.36,4.13.4c2.89,1.73,5.51-2.78,2.63-4.5h0Z"/><path class="cls-3" d="m149.04,91.57c1.08,5.26,7.69,4.78,11.74,4.36,4.16-.43,8.85-1.19,12.29-3.75,3.7-2.75,5.39-7.48,4.3-11.99-.52-2.16-2.28-3.05-3.56-4.69-1.2-1.53-1.9-3.32-2.26-5.21-.27-1.38-1.92-2.17-3.21-1.82-1.45.4-2.09,1.82-1.82,3.21.65,3.36,2.39,6.6,4.93,8.91.54.49.81.55.93,1.19.13.7.15,1.5.04,2.21-.2,1.3-.78,2.5-1.72,3.42-2.15,2.08-5.6,2.66-8.43,3.12-1.8.29-3.65.4-5.47.4-1,0-2.54.18-2.73-.74-.28-1.38-1.91-2.18-3.21-1.82-1.43.39-2.11,1.82-1.82,3.21h0Z"/><path class="cls-3" d="m175.55,80.4c2.06-1.15,4.07-2.36,5.8-3.98.71-.66,1.32-1.33,2.05-1.72.55-.3,1.6-.16,2.47-.09,4.39.36,8.61-2.03,10.56-6,.62-1.26.34-2.82-.94-3.57-1.15-.67-2.94-.33-3.57.94-.73,1.48-1.62,2.46-3.13,3.11.26-.11-.26.08-.31.1-.18.06-.37.11-.55.15-.11.02-.63.11-.29.07-.19.02-.38.03-.57.03-1.13.02-2.24-.23-3.37-.12-2.35.22-4.04,1.52-5.7,3.09-1.52,1.44-3.26,2.46-5.09,3.48-2.93,1.63-.31,6.14,2.63,4.5h0Z"/><path class="cls-3" d="m186.3,68.41c-.14,0-.28,0-.43-.01-.51-.01.25.07-.06,0-.28-.06-.57-.11-.86-.17-.76-.16-1.52-.31-2.29-.39-1.54-.16-3.08.28-4.35,1.15-2.25,1.54-4.3,3.49-6.26,5.39-.98.95-1.03,2.74,0,3.69s2.64,1.01,3.69,0c.88-.86,1.79-1.69,2.71-2.5.46-.4.93-.8,1.4-1.2.24-.2.47-.39.71-.58.11-.09.22-.18.33-.26-.22.17-.26.2-.11.09.21-.13.4-.28.61-.4.12-.07.24-.13.36-.19-.31.13-.33.14-.05.04.13-.04.27-.07.41-.09-.35.05-.37.06-.07.04.15.02,1.03-.03.36,0,.54-.02,1.18.25,1.71.35.72.14,1.46.25,2.19.26,1.36.01,2.67-1.21,2.61-2.61s-1.15-2.59-2.61-2.61h0Z"/><path class="cls-3" d="m185.89,73.61l3.09.34c.36.01.69-.06,1-.22.32-.11.6-.28.84-.54.25-.24.43-.52.54-.84.16-.31.24-.65.22-1-.03-.67-.25-1.37-.76-1.84l-.53-.41c-.41-.24-.85-.35-1.32-.36l-3.09-.34c-.36-.01-.69.06-1,.22-.32.11-.6.28-.84.54-.25.24-.43.52-.54.84-.16.31-.24.65-.22,1,.03.67.25,1.37.76,1.84l.53.41c.41.24.85.35,1.32.36h0Z"/><path class="cls-3" d="m125.83,57.17c-.21-1.22,1.38-1.71,2.27-1.86,1.59-.26,3.07-.37,4.56-1.05.69-.31,1.31-.71,1.91-1.18s1.07-1.04,1.72-1.37c1.26-.64,2.83-.13,4.02.43.64.29,1.4.18,1.78-.47.33-.56.17-1.49-.47-1.78-1.76-.81-3.81-1.44-5.74-.82s-2.95,2.32-4.74,3.02c-1.81.71-3.87.39-5.62,1.31s-2.53,2.64-2.21,4.46c.12.69.97,1.08,1.6.91.73-.2,1.03-.91.91-1.6h0Z"/><path class="cls-3" d="m196.15,55.42c-1.32.24-2.24-1.46-2.45-2.51-.31-1.55.15-3.08.53-4.56.31-1.21.37-2.42-.46-3.45s-2.2-1.76-3.39-2.29c-1.3-.59-2.6-.74-3.95-1.12-.65-.18-.53-.32-.57-1.18-.04-.67,0-1.34.08-2.01.32-2.94,1.19-5.77.25-8.69-.51-1.59-3.03-.91-2.51.69,1.04,3.23-.53,6.51-.44,9.78.04,1.28.18,2.86,1.41,3.58.65.38,1.43.36,2.14.5.85.17,1.69.43,2.48.79.7.32,1.64.74,2.19,1.3.66.68.23,1.45.02,2.27-.4,1.58-.63,3.22-.34,4.84.49,2.71,2.81,5.09,5.69,4.56,1.65-.3.95-2.82-.69-2.51h0Z"/><path class="cls-3" d="m194.39,51.26c.4-2.08.03-4.21-1.26-5.93-.62-.83-1.36-1.55-2.28-2.03-.88-.46-1.95-.53-2.78-.93-1.08-.52-2-1.06-3.25-1.03s-2.43.47-3.44,1.15c-1.58,1.07-2.59,2.9-4.47,3.3s-4.6.13-6.25,1.67-1.22,4.72.06,6.32c1.61,2.01,4.52,1.79,6.49.43,1.63-1.12,2.84-2.61,4.62-3.53.91-.47,1.88-.8,2.87-1.08.88-.25,2.12-.78,3.03-.54.4.1.77.74,1.06,1.24.56.98.99,2,1.35,3.07.44,1.34,1.8,2.21,3.21,1.82,1.31-.36,2.27-1.87,1.82-3.21-.81-2.45-1.91-5.25-4.02-6.88-2.43-1.88-5.44-1.26-8.16-.44-2.51.76-4.87,1.9-6.85,3.63-.43.37-.83.77-1.25,1.15-.04.03-.51.42-.3.26.02-.01-.65.46-.4.28-.34.23-.12-.07-.1.09,0,.05.68.5.86.79-.06-.28-.08-.33-.06-.16,0,.17,0,.11-.02-.18,0-.15.1-.62.02-.42l-.67,1.15c-.25.22-.86.36-.24.24.27-.06.54-.15.81-.2.37-.07.6-.09.98-.13,1.11-.12,2.27-.2,3.33-.57,1.13-.39,2.08-.98,2.98-1.76.67-.58,1.23-1.31,1.93-1.85.26-.2.56-.41.87-.45-.26.03.06.04.28.17.96.54,1.92.83,2.98,1.09l.33.1c-.18-.07-.19-.07-.03.02.36.22-.21-.21.12.07s.28.22.53.66c.04.07.18.39.09.14.07.17.11.36.16.54l.06.27c-.03-.19-.04-.19-.03,0,0,.09-.08.63,0,.26-.27,1.38.39,2.81,1.82,3.21,1.28.35,2.94-.43,3.21-1.82h0Z"/><path class="cls-3" d="m193.22,55.85c.27.26.58.51.92.68l.31.13c.17.05.35.06.52.02.12,0,.23-.03.33-.09.16-.05.3-.14.42-.27.15-.17.27-.36.34-.58.05-.17.06-.35.02-.52,0-.17-.06-.34-.15-.48-.47-.62-.88-1.29-1.21-2-.08-.15-.19-.27-.34-.37-.13-.12-.27-.19-.44-.23-.17-.05-.35-.06-.52-.02-.17,0-.34.06-.48.15-.28.18-.52.45-.6.78l-.05.35c0,.24.06.45.18.66.34.7.74,1.37,1.21,2l1.78-1.78c-.15-.08-.28-.16-.41-.26l.26.2c-.08-.07-.16-.14-.24-.21-.24-.24-.58-.38-.92-.38s-.7.14-.92.38-.4.57-.38.92.13.67.38.92h0Z"/><path class="cls-3" d="m191.22,53.31c.05.38.1.69.25,1.03.13.31.28.56.49.83.37.48.84.86,1.36,1.17.93.56,1.93,1.03,2.89,1.53.6.32,1.44.17,1.78-.47s.16-1.41-.47-1.78c-.21-.12-.41-.26-.61-.4-.04-.03-.22-.17-.04-.03s-.02-.02-.04-.04c-.1-.08-.19-.16-.28-.24-.17-.16-.34-.33-.5-.5-.08-.09-.17-.19-.24-.28-.06-.07-.14-.23.04.06-.03-.05-.08-.1-.11-.15-.14-.19-.27-.39-.38-.6-.06-.11-.12-.22-.18-.33-.03-.06-.05-.11-.08-.17-.05-.1-.05-.24.03.07-.06-.24-.17-.47-.24-.71-.03-.11-.05-.22-.08-.33-.01-.06-.02-.12-.03-.18-.05-.24.04.31,0,.05-.04-.36-.12-.66-.38-.92-.23-.23-.6-.4-.92-.38-.64.03-1.39.58-1.3,1.3.14,1.27.56,2.47,1.31,3.51s1.64,1.87,2.72,2.52l1.32-2.25c-.87-.45-1.74-.89-2.6-1.36-.19-.11-.39-.22-.57-.35-.03-.02-.07-.05-.1-.07-.08-.06-.05-.03.1.07-.02.01-.22-.2-.24-.22-.04-.04-.07-.08-.11-.11-.09-.11-.07-.08.06.08,0-.06-.14-.21-.17-.27-.03-.05-.05-.09-.07-.14.08.19.09.22.05.09-.02-.1-.09-.45-.04-.04-.04-.36-.12-.66-.38-.92-.23-.23-.6-.4-.92-.38s-.69.13-.92.38c-.22.24-.42.59-.38.92h0Z"/><path class="cls-3" d="m174.72,23.98c-1.88.1-3.44-.39-5.12-1.67-1.37-1.05-2.58-2.79-3.12-4.53-1.45.85-2.9,1.69-4.36,2.54,3.46,2.86,7.22,5.16,11.38,6.86.92.38,1.86.76,2.82,1.02,1.31.35,2.44.22,3.75-.01.62-.11.62-.23,1.09.34.53.64.81,1.65,1.08,2.49.43,1.34,1.81,2.21,3.21,1.82,1.32-.36,2.26-1.86,1.82-3.21-.74-2.31-1.71-4.72-3.92-6-1.26-.73-2.59-.83-4-.6-1.06.17-1.42.24-2.49-.13-4.01-1.38-7.79-3.57-11.05-6.27-.9-.75-2.09-1.03-3.16-.41-.97.57-1.54,1.85-1.2,2.94,1.76,5.64,7.14,10.35,13.27,10.02,1.41-.08,2.61-1.14,2.61-2.61,0-1.35-1.19-2.68-2.61-2.61h0Z"/><path class="cls-3" d="m135.92,46.92c-1.57-.45,1.39.7.86.93-.11.05.16-.27.22-.39.39-.7.76-1.39,1.04-2.15.47-1.29.65-2.74.55-4.1-.11-1.56-.48-3.02-1.14-4.43-.26-.56-.57-1.08-.93-1.57s-1.2-1.24-1.41-1.72l.36,1.32c.01.32-.16.35.05-.07.12-.24.24-.49.36-.73.24-.49.48-.98.72-1.47.38-.78.78-1.72,1.31-2.36.05-.07.57-.44.35-.36.14-.05.22-.05.44,0,.8.16,1.46.98,2.19,1.33,1.18.57,2.26.44,3.51.34,1.02-.09,2.04-.08,3.05,0,1.99.17,3.97.82,5.75,1.72,1.26.64,2.83.33,3.57-.94.68-1.16.33-2.93-.94-3.57-3.35-1.7-7.09-2.67-10.86-2.47-.44.02-.88.07-1.33.12-.15.02-.44,0-.57.06-.36.15-.02-.04.17.1-.64-.47-1.3-.94-2.02-1.28-1.87-.87-4.05-.94-5.81.24-1.41.95-2.33,2.42-3.08,3.92-.83,1.67-2.38,3.84-2.04,5.77.3,1.71,1.84,2.59,2.52,3.98.5,1.02.68,2.19.55,3.45.02-.18-.1.5-.14.64-.09.33-.2.64-.26.76-.41.85-.96,1.62-1.22,2.54-.65,2.24.47,4.78,2.78,5.44,3.23.92,4.61-4.11,1.39-5.03h0Z"/><path class="cls-3" d="m132.07,53.61c.79-1.6,1.12-3.41,1.48-5.14s.65-3.56.71-5.36-.3-3.41-.4-5.13c-.03-.45-.05-.92,0-1.37-.05.43.09-.31.11-.39.11-.3.11-.34.02-.13.07-.16.16-.31.25-.46-.16.18-.13.17.08-.06-.21.15-.18.14.08-.02l-3.83-2.94c-.47,1.78-.73,3.65-.73,5.49,0,1.62.35,3.27.48,4.81s-.42,2.67-.79,4.16c-.47,1.92-.43,3.84.53,5.6.67,1.24,2.38,1.63,3.57.94,1.25-.73,1.61-2.33.94-3.57-.18-.33-.17-.67-.14-.98.07-.63.31-1.26.5-1.87.47-1.51.74-3.03.57-4.62s-.45-2.94-.45-4.47c0-1.42.18-2.73.54-4.1.58-2.22-1.84-4.06-3.83-2.94-1.6.9-2.6,2.55-2.95,4.32-.37,1.88-.03,3.67.15,5.55.16,1.71.07,3.41-.24,5.1-.17.95-.38,1.89-.6,2.83-.15.64-.39,1.79-.56,2.13-.62,1.26-.34,2.82.94,3.57,1.15.67,2.94.33,3.57-.94h0Z"/><path class="cls-3" d="m125.25,56.48v-.02c.03.1.08.21.12.31-.02-.06-.04-.13-.05-.19l.05.35c-.01-.08-.01-.17,0-.25l-.05.35c.01-.1.04-.2.08-.29l-.13.31c.04-.09.09-.18.15-.26l-.2.26c.09-.11.19-.21.3-.3l-.26.2c.14-.11.29-.2.44-.29.28-.17.51-.46.6-.78.05-.17.06-.35.02-.52,0-.17-.06-.34-.15-.48-.18-.28-.45-.52-.78-.6s-.7-.05-1,.13c-.5.3-.96.65-1.28,1.15-.1.16-.17.35-.23.52-.05.14-.06.27-.08.42s-.04.28-.02.42.03.3.07.44.11.29.17.43c.08.15.19.27.34.37.13.12.27.19.44.23.17.05.35.06.52.02.17,0,.34-.06.48-.15.28-.18.52-.45.6-.78l.05-.35c0-.24-.06-.45-.18-.66h0Z"/><path class="cls-3" d="m127.98,52.14l-1.23.66c-.15.08-.27.19-.37.34-.12.13-.19.27-.23.44-.05.17-.06.35-.02.52,0,.17.06.34.15.48l.2.26c.16.16.35.27.58.34l.35.05c.24,0,.45-.06.66-.18l1.23-.66c.15-.08.27-.19.37-.34.12-.13.19-.27.23-.44.05-.17.06-.35.02-.52,0-.17-.06-.34-.15-.48l-.2-.26c-.16-.16-.35-.27-.58-.34l-.35-.05c-.24,0-.45.06-.66.18h0Z"/><path class="cls-3" d="m126.38,56.49v-.06c0,.12.02.23.03.35-.01-.08-.01-.16,0-.25l-.05.35c.01-.08.04-.16.06-.23l-.13.31c.06-.14.13-.26.22-.37l-.2.26c.37-.46.87-.86,1.33-1.23l-.26.2c.13-.1.26-.17.41-.24l-.31.13c.44-.17.88-.31,1.3-.52.35-.18.68-.38,1-.59.58-.36.86-1.18.47-1.78s-1.17-.86-1.78-.47c-.43.27-.86.54-1.33.74l.31-.13c-.42.18-.89.27-1.27.53s-.75.59-1.1.91-.65.61-.9.99c-.36.54-.44,1.17-.31,1.8.13.67.97,1.12,1.6.91.71-.23,1.05-.89.91-1.6h0Z"/><path class="cls-3" d="m132.88,32.92c-.09,1.49.36,3.08,1.24,4.3.2.28.43.5.78.6.31.09.73.05,1-.13s.52-.45.6-.78.07-.72-.13-1c-.25-.34-.45-.71-.62-1.1l.13.31c-.2-.47-.33-.96-.4-1.46l.05.35c-.05-.36-.06-.72-.04-1.08.04-.68-.63-1.33-1.3-1.3-.74.03-1.26.57-1.3,1.3h0Z"/><path class="cls-3" d="m140.21,29.61c.66,1.1,1.79,2.68,3.24,2.61.74-.03,1.49-.41,2.19-.63s1.43-.35,2.19-.34c1.55.03,3.07.53,4.52,1.06.35.13.69.28,1.06.35.34.07.83-.07,1.14.03.4.13.72.79.92,1.12.76,1.23,2.82.45,2.38-1-.38-1.28-1.07-2.43-2.08-3.31-1.12-.97-2.74.23-2.05,1.58.41.79.81,1.59,1.22,2.38l2.05-1.58c-.24-.27-.53-.47-.85-.63-.1-.05-.26-.15-.37-.18-.23-.05-.09-.17,0,.14-.48-1.6-3-.92-2.51.69.17.56.49.99.99,1.3.3.19.68.27.9.52,1.01,1.16,2.69-.32,2.05-1.58l-1.22-2.38-2.05,1.58c.69.59,1.15,1.29,1.41,2.16l2.38-1c-.72-1.17-1.67-2.37-3.17-2.41-.33,0-.56.05-.88-.06-.39-.13-.78-.29-1.17-.43-.77-.27-1.56-.51-2.36-.68-1.55-.32-3.14-.4-4.69,0-.14.04-2.12.61-2.12.68,0-.06.45.37.14-.05-.12-.16-.29-.28-.43-.43-.23-.26-.41-.54-.59-.83-.86-1.44-3.12-.13-2.25,1.32h0Z"/><path class="cls-3" d="m157.99,25.8c.88-1.57,1.7-3.19,2.65-4.71.1-.16.2-.32.31-.47.05-.07.1-.14.14-.2-.13.17.04-.04.06-.08.12-.14.24-.28.37-.41.07-.07.14-.14.22-.21.06-.06.21-.17.06-.06.16-.11.32-.22.5-.31.06-.03.27-.12.11-.06.08-.03.17-.06.25-.09.11-.03.21-.06.32-.08.04,0,.32-.05.11-.03.22-.02.44-.02.67,0,.73.04,1.27-.63,1.3-1.3,0-.11.01-.23.02-.34.04-.9-.86-1.41-1.65-1.26-1.04.2-1.6,1.21-1.73,2.18-.07.51,0,1,.09,1.5.11.58.18.69.13,1.22l1.65-1.26c-2.17-.5-4.15,1.02-5.9,2.1l1.78,1.78c.13-.2.26-.4.41-.6-.15.2.08-.1.09-.11.08-.09.16-.18.24-.27.16-.17.33-.34.5-.5.09-.08.18-.16.27-.23.02-.01.32-.24.11-.09.38-.27.77-.52,1.19-.73.1-.05.21-.1.32-.15-.17.08-.03.01.06-.02.24-.09.47-.17.72-.23.66-.18,1.13-.93.91-1.6s-.9-1.11-1.6-.91c-2.28.63-4.2,2.14-5.46,4.14-.7,1.1.69,2.46,1.78,1.78.73-.45,1.47-.9,2.22-1.32.37-.21.61-.34.89-.43.09-.03.18-.05.26-.08.07-.02.2-.04.05-.02.11-.01.23-.01.34,0,.22,0-.27-.07.13.02.89.2,1.57-.4,1.65-1.26.04-.44-.02-.87-.1-1.3-.03-.18-.07-.36-.11-.55-.02-.09-.04-.18-.05-.27,0,.09.01.1,0,.02,0-.12,0-.23,0-.35,0,.33.03-.05.05-.14-.08.16-.08.18-.02.05.08-.12.06-.1-.05.05.1-.1.08-.08-.06.05-.18.07-.21.09-.07.05l-1.65-1.26c0,.11-.01.23-.02.34l1.3-1.3c-2.19-.11-3.92,1.14-5.1,2.87-.52.75-.94,1.56-1.38,2.36l-1.55,2.77c-.33.6-.16,1.45.47,1.78s1.43.17,1.78-.47h0Z"/><path class="cls-3" d="m163.15,22.28c.18.09.35.2.52.33l-.26-.2c.25.19.47.41.66.66l-.2-.26c.12.16.24.33.33.51.08.15.19.27.34.37.13.12.27.19.44.23.17.05.35.06.52.02.17,0,.34-.06.48-.15.28-.18.52-.45.6-.78s.04-.69-.13-1c-.09-.16-.19-.32-.3-.47-.17-.23-.35-.46-.55-.66s-.43-.38-.66-.55c-.15-.11-.3-.2-.46-.28-.15-.1-.31-.15-.48-.15-.17-.04-.35-.03-.52.02-.17.04-.32.12-.44.23-.14.09-.25.21-.34.37-.16.3-.24.67-.13,1,.1.31.3.62.6.78h0Z"/><path class="cls-3" d="m158.35,21.39c-.31.22-.61.46-.87.73s-.5.58-.72.9c-.1.15-.15.31-.15.48-.04.17-.03.35.02.52.04.17.12.32.23.44.09.14.21.25.37.34l.31.13c.23.06.46.06.69,0l.31-.13c.2-.12.35-.27.47-.47.05-.08.11-.15.17-.23l-.2.26c.25-.32.53-.61.85-.85l-.26.2s.07-.06.11-.08c.15-.08.27-.19.37-.34.12-.13.19-.27.23-.44.05-.17.06-.35.02-.52,0-.17-.06-.34-.15-.48l-.2-.26c-.16-.16-.35-.27-.58-.34l-.35-.05c-.24,0-.45.06-.66.18h0Z"/><path class="cls-3" d="m175.33,28.41c.9.11,1.79.02,2.68-.09.95-.12,1.91-.26,2.81-.61.33-.13.6-.29.78-.6.16-.28.23-.69.13-1-.2-.61-.92-1.18-1.6-.91-.41.16-.83.28-1.26.37-.18.04-.37.07-.55.1-.12.02-.25.04-.37.06-.27.04.27-.03-.03,0-.87.11-1.72.19-2.59.08-.31-.04-.71.17-.92.38-.23.23-.4.6-.38.92s.13.69.38.92c.27.25.56.34.92.38h0Z"/><path class="cls-3" d="m182.81,30.58c.1.46.25.9.37,1.35.06.22.16.48.16.71l-.02-.13c0,.07.02.14.02.22,0,.11.02.22.02.33.06.98.09,1.97.14,2.95.03.65.47,1.19,1.13,1.28.58.08,1.33-.29,1.43-.93.08-.5.16-1.01.25-1.51.05-.26.09-.52.15-.78.02-.1.04-.2.07-.3.02-.07.04-.13.06-.2-.06.14-.07.16-.03.08.63-.99.91-2.1.57-3.25-.18-.62-.79-1.02-1.43-.93s-1.16.63-1.13,1.28c.02.47.03.94,0,1.41,0,.12-.02.23-.03.35,0,.1-.02.35-.01.11,0,.23-.09.49-.14.71-.21.88-.53,1.73-.86,2.57l2.56.35c0-.06,0-.12.01-.18.05-.68-.64-1.33-1.3-1.3-.75.03-1.25.57-1.3,1.3,0,.06,0,.12-.01.18-.05.64.54,1.2,1.13,1.28.68.09,1.19-.32,1.43-.93.34-.88.68-1.76.89-2.68.23-1.04.29-2.1.25-3.16l-2.56.35c.02.07.09.22.07.3-.02-.18-.03-.19-.01-.04v.1c0,.07,0,.14,0,.2l.02-.15c.02.08-.05.21-.07.29-.06.26.12-.16-.03.05-.06.08-.11.18-.16.26-.15.26-.28.53-.37.82-.14.41-.2.86-.28,1.29-.09.48-.17.96-.24,1.45l2.56.35c-.05-1.02-.08-2.04-.14-3.06-.04-.56-.11-1.11-.26-1.65-.13-.47-.29-.93-.39-1.41-.14-.67-.96-1.12-1.6-.91-.71.23-1.06.89-.91,1.6h0Z"/><path class="cls-2" d="m174.2,70.87c.05-.47-.08-.99-.32-1.4.06.1-.46-.68-.55-.68-.14-.17-.14-.12,0,.15.06.31.1.32.13.05.23-.26.33-.98.51-1.31.25-.46.54-.89.9-1.27,1.66-1.74,4.42-1.94,6.65-2.45s4.58-.87,5.98-2.91c.65-.94,1.06-2.04,1.69-3s1.45-1.85,2.34-2.63l-3.34-1.38c.18,1.54.89,2.59,2.38,3.13l-1.37-1.37.08.38v-1.04c-.18.94-.87,1.75-1.06,2.74-.17.9-.2,1.85.03,2.75.5,1.91,1.96,3.49,3.95,3.79,3.41.52,8.43-2.63,6.46-6.46-1.15-2.24-4.53-.26-3.38,1.97.14-.44.12-.54-.07-.3-.19.12-.38.23-.58.34-.42.23-.99.58-1.49.59-.87.03-1.2-.68-1.16-1.5.05-1.05.86-1.85,1.05-2.87.12-.61.05-1.34-.28-1.89-.17-.29-.41-.53-.7-.7-.66-.37-.65-.22.02.45-.2-1.68-1.99-2.58-3.34-1.38-.98.87-1.84,1.85-2.6,2.92-.72,1-1.13,2.17-1.82,3.17-.63.92-1.94,1-2.95,1.23-1.44.33-2.89.64-4.33,1-2.58.64-4.73,1.97-6.18,4.23-.63.98-1.12,2.15-1.32,3.31-.27,1.5.39,2.22,1.26,3.32l-.5-.86v-.11c-.13,1.05.97,1.96,1.94,1.96,1.16,0,1.84-.9,1.96-1.96h0Z"/><path class="cls-2" d="m191.83,56.18l.14-.14c.19-.18.33-.39.4-.63.12-.23.18-.48.17-.75.01-.27-.05-.52-.17-.75-.08-.24-.21-.45-.4-.63l-.4-.31c-.3-.18-.63-.27-.99-.27l-.52.07c-.33.09-.62.26-.86.5l-.14.14c-.19.18-.33.39-.4.63-.12.23-.18.48-.17.75-.01.27.05.52.17.75.08.24.21.45.4.63l.4.31c.3.18.63.27.99.27l.52-.07c.33-.09.62-.26.86-.5h0Z"/><path class="cls-2" d="m188.63,55.68c-.42.15-.76.31-1.1.58s-.58.54-.86.9c-.35.47-.58,1.03-.76,1.58-.39,1.15-.56,2.41-.6,3.63-.03.82.62,1.7,1.44,1.89.34.08.7.08,1.04,0,.41-.09.99-.5,1.17-.9.14-.32.32-.63.53-.91l-.31.4c.14-.18.29-.35.46-.51l-3.07-.4c.16.27.3.55.42.84l-.2-.47c.13.32.25.65.34.98.27.99,1.4,1.69,2.41,1.37s1.66-1.35,1.37-2.41c-.22-.8-.55-1.58-.96-2.3-.64-1.12-2.17-1.25-3.07-.4-.54.51-1,1.14-1.3,1.82l3.64.99c.01-.39.04-.77.09-1.16l-.07.52c.11-.77.27-1.55.56-2.27l-.2.47c.12-.28.26-.55.44-.79l-.31.4c.11-.13.22-.25.35-.35l-.4.31c.1-.07.19-.13.3-.18l-.47.2s.09-.04.13-.05c.48-.17.9-.44,1.17-.9.25-.42.35-1.04.2-1.51-.31-.95-1.37-1.73-2.41-1.37h0Z"/><path class="cls-2" d="m174.6,72.19l.21-.1-.99.27c.15,0,.79.22,1.12.22.56.01,1.14-.13,1.62-.43.76-.47,1.42-1.11,2.18-1.59s1.63-1.1,2.5-1.41,1.9.04,2.76.17c1.94.31,4.24,1.03,6.18.44,2.04-.62,3.17-2.81,4.1-4.57.71-1.34-.18-2.87-1.69-2.94-.99-.05-1.97-.09-2.96-.14-.88-.04-1.37-.62-2.14-1.03-.94-.51-1.91-.89-3-.79s-2.23.41-3.32.66c-1.99.46-4.08.99-5.89,1.95-.92.49-1.58,1.2-2.14,2.05-.33.5-.58,1.11-1.05,1.34-1.4.7-1.13,2.61,0,3.38.72.49,1.59.88,2.48.86,1.04-.02,1.49-.74,2.22-1.29.94-.71,2.38-1.55,3.57-1.71.75-.1,1.48.29,2.25.24.71-.04,1.32-.19,2.04-.09,1.65.21,3.18.64,4.83.11,1.9-.6,1.81-3.13,0-3.77-1.05-.37-2.1-.74-3.16-1.11s-2.09-.83-3.22-.81c-2.51.05-2.52,3.96,0,3.91.8-.02,1.77.53,2.53.79.94.33,1.87.66,2.81.99v-3.77c-1.16.37-2.42-.09-3.59-.23-.71-.08-1.42-.11-2.12.04-.46.09-1.18-.18-1.88-.21-1.45-.07-2.83.51-4.09,1.15-.57.29-1.14.59-1.68.94-.5.32-1.07.95-1.49,1.18l.99-.27s-.43-.27-.51-.33v3.38c.75-.37,1.29-.98,1.76-1.66.35-.5.59-1.15,1.07-1.53.64-.5,1.59-.73,2.35-.97.97-.31,1.96-.57,2.96-.8.47-.11.94-.21,1.41-.31.35-.07.84-.28,1.2-.25.65.05,1.32.69,1.84,1.03,1.7,1.1,3.97.88,5.92.97-.56-.98-1.13-1.96-1.69-2.94-.41.78-.85,1.58-1.37,2.29-.41.56-.71.59-1.4.53-2.01-.19-3.99-.81-6.01-.91s-3.64.99-5.22,1.97c-.37.23-.74.47-1.09.72-.1.07-1.23.78-1.2.93-.03-.18.59.15.33-.15-.08-.1-.54-.12-.63-.13-.62-.08-1.12.07-1.69.33-.96.44-1.2,1.83-.7,2.68.58.98,1.71,1.15,2.68.7h0Z"/><path class="cls-2" d="m195.95,55.1c-.31-.04.32.11.43.16-.23-.09.32.2.42.26.25.16.62.56.8.85.59.94.71,1.8.66,2.92,0,.05-.04.34,0,.13-.02.15-.06.3-.09.45-.07.32-.16.63-.24.95-.17.72-.28,1.47-.24,2.21.02.32.05.64.06.97v.24c0-.12,0-.12-.03,0-.1.31.11-.23-.03.06-.13.26.16-.16-.03.06-.08.09-.17.18-.27.26-.23.2.2-.12-.06.03-.32.18-.35.05.19.03l.99.27c.15.07.41.6.26.2-.04-.12-.11-.23-.17-.34-.19-.32-.44-.65-.72-.9-.54-.51-1.19-.88-1.9-1.1-1.44-.45-2.95-.08-4.33.4-1,.34-1.66,1.34-1.37,2.41.27.97,1.4,1.71,2.41,1.37.48-.17,1.21-.42,1.58-.46.16-.01.32-.01.48,0-.22-.04-.22-.03.02.01l.18.05c-.18-.09-.16-.09.04.02.19.13.21.13.06,0,.09.08.18.17.26.26-.2-.27.14.36.17.42.42.74,1.18,1.28,2.05,1.31,1.34.04,2.66-1.03,3.38-2.09.81-1.18.71-2.38.68-3.72-.02-1.07.5-2.31.58-3.5s-.11-2.45-.55-3.56c-.99-2.5-3.01-4.19-5.68-4.55-1.05-.14-1.96,1-1.96,1.96,0,1.17.9,1.82,1.96,1.96h0Z"/><path class="cls-2" d="m194.96,65.86l2.41-.62c.48-.12.98-.22,1.41-.47.64-.36,1.08-1,1.25-1.7.2-.78.3-1.6.44-2.39.15-.85.3-1.69.44-2.54.14-.8-.03-1.54-.7-2.06-.62-.48-1.48-.55-2.17-.15s-1.28.86-1.83,1.39c-.74.71-.77,2.06,0,2.77s1.98.76,2.77,0c.19-.18.39-.36.6-.52l-.4.31c.27-.21.55-.39.84-.56l-2.87-2.21c-.15.89-.31,1.78-.46,2.66-.08.43-.15.87-.23,1.3-.07.39-.11.81-.25,1.18l.2-.47c-.02.05-.05.1-.09.15l.31-.4s-.08.09-.13.12l.4-.31s-.1.06-.16.08l.47-.2c-.51.18-1.06.29-1.58.42l-1.69.43c-.99.25-1.69,1.41-1.37,2.41s1.34,1.64,2.41,1.37h0Z"/><path class="cls-2" d="m196.38,58.13c-.79.5-1.52,1.1-2.25,1.68l.4-.31c-.18.14-.36.25-.57.33l.47-.2c-.73.29-1.48.55-2.21.83-.49.18-.9.44-1.17.9-.25.42-.35,1.04-.2,1.51s.45.93.9,1.17,1.02.38,1.51.2c.67-.25,1.35-.5,2.02-.75.43-.16.86-.33,1.23-.61s.75-.6,1.14-.89l-.4.31c.36-.28.73-.55,1.12-.79.42-.27.76-.68.9-1.17s.07-1.09-.2-1.51-.67-.78-1.17-.9-1.06-.09-1.51.2h0Z"/><path class="cls-2" d="m180.5,79.94c.29-.09.08-.05.29.02.29.09.57.19.86.29.68.22,1.37.37,2.07.48,1.46.22,3.02.49,4.49.24,1.26-.21,2.24-.98,3.39-1.45-.13.05.39-.11.48-.13.35-.06-.21,0,.13,0,.11,0,.22,0,.33,0,.77-.02,1.54-.09,2.22-.48,1.29-.74,1.82-2.26,1.65-3.68-.17-1.46-.8-3.51-2.42-3.9-1.35-.33-2.49.91-3.58,1.23s-1.94.38-3.13.44c-1.44.06-2.97-.03-4.33.51-1.48.58-2.74,1.64-3.96,2.64-.66.54-.71,1.67-.31,2.37.44.76,1.37,1.11,2.21.9s1.98.1,2.89.1c1.18,0,2.36-.14,3.53-.31,2.16-.31,4.41-.64,6.4-1.54.96-.43,1.19-1.83.7-2.68-.58-.99-1.71-1.14-2.68-.7-.81.36-1.77.48-2.63.65-.95.18-1.9.37-2.86.5s-2.01.19-3.01.16c-1.15-.04-2.23-.24-3.38.05.63,1.09,1.27,2.18,1.9,3.27.78-.64,1.8-1.53,2.69-1.79s2.05-.16,3.07-.21c1.17-.06,2.36-.17,3.5-.45.61-.15,1.19-.36,1.76-.62.28-.12.55-.25.81-.4.09-.05.84-.45.42-.33h-1.04l.16.05-.86-.5s-.07-.1-.08-.15c0,.17.17.45.23.62.02.06.25.78.13.79-.1,0,.23-.35.24-.36.11-.1.26-.02.08-.06-.12-.03-.31,0-.43.01-1.65.03-2.87.77-4.31,1.45-.1.05-.33.15-.58.2-.3.06-.61.04-.92.02-.71-.04-1.43-.12-2.12-.23-1.66-.27-3.33-1.29-5.04-.74-1,.32-1.65,1.36-1.37,2.41.27.99,1.4,1.69,2.41,1.37h0Z"/><path class="cls-2" d="m195.2,72.5c-.28-.42-.04-.91.16-1.31.28-.58.57-1.15.9-1.69.12-.2.25-.44.44-.59.2-.16.49-.19.73-.27.64-.22,1.1-.67,1.16-1.37.03-.35-.32-.65-.65-.65-.38,0-.62.3-.65.65,0-.06-.03.03-.08.06-.01,0-.15.06-.21.08-.32.1-.66.17-.94.37-.55.38-.9,1.02-1.22,1.59s-.65,1.2-.89,1.83-.26,1.39.13,1.97c.2.29.57.42.89.23.29-.17.43-.6.23-.89h0Z"/><path class="cls-2" d="m196.3,67.04c-.23.26-.46.52-.69.78l1.02.79c.5-1,.32-2.19-.4-3.03v.92c.18-.22.37-.43.58-.62.1-.09-.07.03.06-.04.05-.03.1-.06.15-.09.07-.03.07-.04,0,0,.03-.01.07-.02.1-.04.05-.02.1-.03.15-.04.54-.13,1.08-.18,1.49-.62.23-.25.27-.68,0-.92s-.67-.27-.92,0c-.02.03-.05.05-.07.07.07-.05.07-.05,0-.01-.03.02-.17.08-.03.02-.11.04-.23.07-.35.1-.22.05-.46.08-.67.15-.6.21-1.02.65-1.41,1.12-.24.29-.25.63,0,.92.11.13-.04-.07.01.01.02.04.05.07.07.11.05.08.09.16.12.24-.04-.08-.02-.04,0,.02.01.04.03.09.04.13s.02.09.03.13c0,.03.02.16,0,.01,0,.09.02.18.02.27,0,.04,0,.07,0,.11,0,0-.02.17,0,.07s-.01.05-.01.07c0,.04-.02.08-.03.13s-.03.08-.04.12c.03-.1.01-.02-.02.03-.15.29-.1.63.17.84.24.19.64.2.86-.05.23-.26.46-.52.69-.78s.27-.68,0-.92c-.25-.23-.68-.27-.92,0h0Z"/><path class="cls-2" d="m193.48,72.82c.82-.45,1.35-1.25,1.92-1.97.3-.38.65-.75.86-1.19.1-.22.19-.45.26-.68s.11-.37.21-.55c.17-.3.08-.73-.23-.89s-.71-.08-.89.23c-.12.21-.21.44-.28.66-.03.09-.06.18-.08.27-.02.06-.04.11-.06.17,0,.01-.04.12-.03.08-.05.13-.19.35-.31.5-.07.09.04-.05-.03.04-.04.05-.08.1-.12.15-.08.1-.15.19-.23.29-.27.35-.54.7-.83,1.04-.12.15-.25.29-.4.42-.04.04-.08.07-.13.11-.02.02-.08.06-.02.02-.09.07-.18.12-.28.18-.3.16-.42.6-.23.89s.57.41.89.23h0Z"/><path class="cls-2" d="m198.63,57.28c.29-.56.14-1.15-.23-1.63-.26-.34-.63-.59-.98-.84-.15-.11-.3-.22-.45-.33-.04-.03-.08-.06-.12-.09-.03-.02-.15-.11-.02-.02-.07-.05-.14-.11-.2-.17-.14-.12-.27-.24-.4-.38-.03-.04-.06-.07-.09-.11-.09-.1.06.1-.02-.02-.05-.08-.11-.16-.16-.25-.17-.3-.6-.42-.89-.23s-.42.58-.23.89c.39.67.99,1.15,1.61,1.59.14.1.28.2.41.3.03.02.06.05.1.07.06.05-.09-.08,0,0,.07.06.14.11.21.17.07.06.14.13.21.2.02.03.05.05.07.08-.09-.12,0,.02.02.04.06.1,0-.06,0,0,0,.03.04.09.03.12.03-.18-.05,0-.01.02v-.08c-.01.07,0,.06.02-.02-.15.3-.09.72.23.89.3.16.73.09.89-.23h0Z"/><path class="cls-2" d="m190.2,53.87c.06.04.12.08.18.12.08.05-.08-.07-.02-.01.02.02.05.04.08.06.11.1.22.2.32.31.03.03.18.19.07.08.04.05.08.11.12.16.08.13.16.26.23.39.02.03.03.06.04.09.03.07.02.03,0-.02.03.07.06.15.08.22.06.18.13.36.21.53.03.07.07.14.11.21.02.03.04.06.06.09.06.11.06.02-.02-.28l.02-.06-.03.04.04-.05s-.06.06-.07.08c-.03.03-.06.06-.09.09-.06.06.12-.08,0,0-.28.19-.43.58-.23.89.18.28.59.44.89.23.46-.32.95-.85.7-1.45-.05-.11-.11-.2-.17-.3-.02-.04-.04-.08-.06-.12-.03-.07.04.1,0-.02-.08-.22-.16-.44-.25-.65-.32-.73-.87-1.35-1.54-1.78-.29-.18-.73-.07-.89.23-.17.32-.07.7.23.89h0Z"/><path class="cls-2" d="m170.95,71.43l-.07.55h1.26c-.18-.74-.45-1.45-.77-2.13-.07-.14-.24-.26-.39-.3-.16-.04-.36-.02-.5.07s-.26.22-.3.39c-.04.18-.01.34.07.5.07.14.13.29.2.44l-.07-.16c.21.5.38,1.01.51,1.54.07.27.35.49.63.48.12,0,.23-.03.33-.09.12-.07.28-.25.3-.39l.07-.55c.02-.18.03-.34-.07-.5-.08-.14-.23-.26-.39-.3-.17-.04-.35-.03-.5.07-.13.08-.28.23-.3.39h0Z"/><path class="cls-1" d="m143.39,48.55c.09-1.26-.05-2.57-.45-3.77-.21-.63-.47-1.25-.79-1.83-.25-.45-.82-.96-.96-1.45-.19-.66.44-1.89.77-2.49.47-.84.89-.97,1.83-.77,2.49.55,4.77,2.23,7.4,1.98,1.17-.11,2.31-.48,3.29-1.15.5-.35.98-.74,1.38-1.21.34-.4.58-.94,1-1.26l-.86.5c-.33-.06-.37-.06-.15,0,.09.03.18.06.27.08.3.07.61.12.93.11.66-.03,1.33-.32,1.8-.78.39-.39.66-.89.85-1.4.16-.45.19-1.01.45-1.38l-2.68.7c-.08-.04-.12-.28-.11-.09.02.28.19.63.26.91.13.5.26,1.01.32,1.53.12,1.06-.06,1.97-.27,3-.48,2.33-.41,4.82-.54,7.2l3.34-1.38c-1.6-1.3-3.25-1.36-5.21-1.02-.82.14-1.47.18-2.29-.06s-1.66-.55-2.53-.7c-1.69-.29-3.41-.09-5.09-.35s-2.19-1.34-2.2-2.94l-3.64.99c.92,1.32,1.85,2.63,2.77,3.95,1.43,2.04,4.55.29,3.38-1.97-.33-.63-1.17-2.14.03-2.39h-1.04c-.05-.22.03-.18.23.12.11.12.21.25.28.4.09.13.15.28.16.44,0-.13-.02-.15-.05-.06-.12.56-.42.91-.44,1.52-.02.43.07.83.25,1.22.4.91,1.25,1.56,2.27,1.54.94-.02,1.9-.77,2.81-1.02s1.74-1.41,1.37-2.41c-.79-2.11-1.72-4.35-3.71-5.6s-5.23-1.5-7.13-.18c-.87.6-1.26,1.71-.7,2.68.5.86,1.8,1.31,2.68.7.8-.55,2.46-.34,3.24.21.99.7,1.45,2.16,1.86,3.23l1.37-2.41c-.96.27-1.89.66-2.76,1.15l.99-.27-.2-.02.99.27-.17-.12.7.7c.27.41,0,.99.33-.07.13-.4.21-.84.19-1.27-.03-.77-.29-1.54-.67-2.21-.81-1.42-2.39-2.81-4.14-2.26-1.39.43-2.7,1.83-3.1,3.22-.49,1.7.22,3.37.99,4.86l3.38-1.97c-.92-1.32-1.85-2.63-2.77-3.95-1.06-1.52-3.65-1.07-3.64.99s.62,4.09,2.19,5.4,3.56,1.49,5.51,1.55c.94.03,1.9,0,2.84.18.98.19,1.9.62,2.88.82,1.12.23,2.16.13,3.28-.06.43-.07,1.38-.38,1.78-.05,1.32,1.07,3.24.4,3.34-1.38.08-1.45.16-2.91.24-4.36.07-1.36.43-2.63.57-3.97.15-1.41-.07-2.87-.41-4.24-.31-1.26-.71-2.76-2-3.34-1.01-.46-2.04-.25-2.68.7-.32.47-.86,1.57-.79,2.19,1.16-.3,1.42-.52.78-.65-.26-.07-.52-.11-.79-.13-.35-.01-.68.05-1.01.17-1.43.49-1.73,2.13-3.07,2.74-1.13.52-2.16.17-3.26-.27-1.63-.67-3.24-1.34-5.01-1.53-3.43-.37-5.25,2.5-6.08,5.42-.25.89-.4,1.85-.16,2.76.22.8.71,1.37,1.14,2.05.79,1.24,1.06,2.59.96,4.05-.08,1.05.95,1.96,1.96,1.96,1.12,0,1.88-.9,1.96-1.96h0Z"/><path class="cls-1" d="m150.24,46.3c1.84.11,3.69.24,5.54.31,1.36.05,2.39-.7,2.93-1.91.37-.85.64-1.71.77-2.63s.21-1.88.21-2.83c0-.88.06-1.89-.17-2.74-.22-.78-.8-1.38-1.56-1.64-.65-.23-1.35-.04-1.96.18s-1.1.51-1.61.93c-.13.11-.26.23-.39.34-.06.06-.13.12-.19.17-.06.06-.13.11-.2.17l.19-.15c-.17.05-.37.25-.53.34-.07.04-.15.08-.22.12-.06.03-.11.06-.17.08-.13.06-.08.04.18-.07,0,0-1.11.36-1.21.38-.4.09-.8.16-1.21.22-.29.04.51-.06.07-.01-.11.01-.21.03-.32.04-.23.03-.47.05-.7.07-1.05.1-1.96.81-1.96,1.96,0,1.3.22,2.71,1.16,3.69.63.66,1.54,1.03,2.45,1,.4-.01.81-.09,1.2-.17.16-.04.32-.07.48-.11.05-.01.29-.06.02,0s.04.01.11.01c.63,0,1.25.15,1.88.16.75,0,1.53-.17,2.19-.54.75-.42,1.38-1.19,1.57-2.03.26-1.15-.18-2.31-1.21-2.91-.92-.53-1.92-.28-2.86,0-.73.21-1.47.42-2.2.63.35,1.26.69,2.51,1.04,3.77.97-.34,1.94-.67,2.92-1.01s1.71-1.36,1.37-2.41c-.31-.96-1.37-1.72-2.41-1.37-.97.34-1.94.67-2.92,1.01s-1.71,1.36-1.37,2.41,1.35,1.67,2.41,1.37c.59-.17,1.17-.34,1.76-.5.29-.08.59-.17.88-.25.1-.03.21-.04.3-.08.15-.03.07-.02-.25.03.22,0,.14-.02-.24-.1-.5-.06-.82-.37-.99-.92-.05-.14-.06-.29-.04-.43,0-.14.04-.28.12-.4-.09.14-.08.13.02-.01.11-.14.11-.15,0-.03l.22-.17c-.06.04-.13.08-.19.11l.26-.11s-.3.06-.33.09c.31-.04.39-.05.24-.03-.06,0-.11,0-.17.01-.28,0-.56-.02-.84-.05-.74-.09-1.38-.12-2.11,0-.25.04-.5.1-.75.16-.09.02-.18.04-.27.05l.25-.04c-.09,0-.18,0-.27,0l.26.02c.24.12.28.13.12.04l.24.19s-.07-.07-.1-.1c-.1-.11-.05-.05.15.2-.03-.04-.05-.09-.08-.13-.07-.13-.04-.06.09.23-.01-.09-.07-.21-.1-.31s-.02-.24-.07-.33l.04.3c0-.07-.02-.15-.02-.23-.02-.22-.02-.44-.03-.67l-1.96,1.96c1.42-.14,2.89-.26,4.24-.77.88-.33,1.62-.74,2.36-1.32.24-.19.46-.4.68-.6,0,0,.16-.17.2-.17-.02,0-.34.19-.08.08.04-.02.24-.11.25-.13-.04.08-.36.13-.08.05.08-.02.18-.05.26-.08l.07-.02c.76-.2.16-.57-1.82-1.1.1.31-.03-.51,0-.07.02.38.03.76.03,1.13.01.73.01,1.46-.05,2.19-.01.16-.03.32-.05.49-.02.22.02-.17.03-.18-.03.08-.03.19-.04.27-.06.36-.14.71-.25,1.06-.05.15-.1.3-.15.45-.03.07-.15.34-.03.08s0,0-.04.07c-.01.02-.1.15-.09.17-.02-.08.29-.3.36-.34.1-.06.41-.22.51-.16-.05-.03-.2,0-.25,0-1.83-.09-3.65-.21-5.47-.31-1.02-.06-2,.94-1.96,1.96.05,1.11.86,1.89,1.96,1.96h0Z"/><path class="cls-1" d="m144.63,53.48c.37-1.02.36-2.27-.03-3.29-.2-.54-.47-.96-.76-1.45-.07-.12-.21-.47-.01.03-.09-.23.02.03.02.14.02.4,0,.15.07-.05.02-.06.17-.43.04-.12s.03-.04.05-.08c.04-.09.09-.17.14-.25.08-.12.27-.3-.07.09.21-.24-.3.18-.11.07.15-.08-.5.16-.45.12.05-.05.32.02.38.02.26.01-.45-.14-.11,0-.23-.09-.39-.22-.55-.41-.24-.27,0,.07.03.08-.1-.1-.16-.4-.04-.08.09.24.18.49.28.73.19.51.39,1.02.58,1.54.3.78.98,1.48,1.89,1.44s1.6-.59,1.89-1.44c.08-.22.15-.44.23-.66.02-.07.05-.13.07-.2.05-.14.03-.09-.07.14.05-.06.08-.18.12-.25.1-.21.22-.4.34-.59.21-.35-.29.3,0,.01.07-.07.14-.15.21-.22.06-.06.17-.13.22-.2-.09.12-.32.23-.06.06.08-.05.17-.11.25-.15.07-.04.39-.18.09-.05s.05-.01.1-.03c.09-.03.19-.05.28-.08.35-.08,0,.04-.11,0,.09.03.26-.02.35-.02,1.02-.02,2-.88,1.96-1.96s-.86-1.98-1.96-1.96c-1.43.03-2.75.57-3.8,1.53s-1.54,2.28-1.99,3.58h3.77c-.24-.63-.48-1.27-.72-1.9-.27-.71-.5-1.44-1.05-1.99-.66-.66-1.65-.89-2.57-.86-.97.02-1.83.47-2.42,1.23-.43.55-.7,1.16-.94,1.81-.34.93-.23,1.87.22,2.73.12.24.29.45.43.68l.06.11c.09.19.08.15-.03-.12.02.12.09.25.12.37.02.06.03.13.04.19.03.15.02.08-.02-.2-.01,0,.01.33.01.39-.01.5-.04,0,.01-.01-.01,0-.12.44-.14.48-.35.96.39,2.18,1.37,2.41,1.1.25,2.03-.34,2.41-1.37h0Z"/><path class="cls-1" d="m143.39,46.38c-1.44.75-1.47,2.35-1.16,3.73.1.47.22.94.34,1.41.07.27.14.53.21.8.02.07.23.84.18.46l.27-.99s.26-.33.28-.31c0,0-.22.14-.23.14-.08.05-.16.09-.24.13.08-.04.32-.1-.04,0-.51.15-1.04.19-1.5.48-1.16.73-1.44,2.12-1.16,3.38.23,1.06.92,2.09,1.88,2.62.5.27,1.08.43,1.65.42.28,0,.62-.05.89-.15.29-.11.36,0-.44-.2-.76-.19-.69-.23-.41.05.2.2-.12-.21.02.04.04.08.1.15.15.23.15.22.3.43.46.63.33.43.71.82,1.19,1.1,1.16.66,2.47.45,3.61-.11.53-.26,1.03-.66,1.37-1.15.48-.69.37-1.48.15-2.24-.25-.86-.59-1.69-.94-2.52-.38-.92-.76-1.85-1.01-2.81-.06-.25-.12-.5-.17-.76,0-.01-.05-.33-.02-.12.02.19-.01-.18-.02-.22-.02-.25-.02-.5,0-.76,0-.09.01-.19.02-.28-.03.4.05-.17.06-.22.23-.99-.31-2.16-1.37-2.41-1-.23-2.16.3-2.41,1.37-.43,1.86-.15,3.76.48,5.54.28.79.61,1.55.93,2.33.14.36.28.71.41,1.08.06.18.13.36.18.55.03.1.18.84.15.37l.27-.99c.43-.58.35-.36.03-.18-.18.09-.21.11-.09.04.12-.06.09-.05-.1.02.19.05.32.03.51.13-.3-.15.07.14-.04-.02-.1-.14-.23-.26-.06-.04-.11-.15-.21-.3-.31-.46-.26-.38-.54-.78-.87-1.11-.43-.41-.94-.7-1.53-.78-.32-.04-.61-.03-.93.03-.07.01-.38.16-.45.13.11-.04.22-.05.33-.02.1,0,.2.03.28.1l-.14-.08c.18.14.19.14.03-.02l.11.13c-.09-.17-.1-.19-.05-.07.12.29-.05-.51-.04-.14.02.15.02.14.01-.04l-.03.24c-.07.23-.21.4-.43.51-.41.26-.47.35-.16.26.38-.03.76-.21,1.1-.36.88-.37,1.96-1,2.2-2.01.21-.93-.23-1.92-.46-2.81-.1-.4-.2-.8-.29-1.2-.02-.08-.16-.57-.13-.59l.02.14c-.03.38-.22.69-.58.93.91-.48,1.26-1.82.7-2.68-.6-.92-1.7-1.21-2.68-.7h0Z"/><path class="cls-1" d="m143.14,54.26c-.29-.67-.13-1.27.49-1.8.26-.09.28-.1.08-.03-1.24.45-1.76,1.68-1.17,2.87.39.79,1.15,1.23,1.93,1.56.06.03.11.06.16.1-.22-.18-.25-.19-.09-.04-.33-.38,0,.03.06.14.25.41.51.81.85,1.15.58.6,1.65.77,2.37.31s1.18-1.37.9-2.21c-.15-.45-.28-.9-.38-1.36-.05-.23-.09-.46-.13-.69.07.45-.02-.27-.03-.36-.04-.47-.04-.94-.02-1.4.01-.23.03-.46.05-.7.03-.23.03-.23,0,0,.01-.09.03-.17.04-.26.07-.4.16-.81.29-1.2.03-.1.07-.2.11-.3-.1.22-.1.24,0,.04.05-.09.43-.62.11-.25.07-.08.55-.51.17-.23.17-.12.35-.23.53-.33.09-.05.7-.3.25-.12.19-.07.39-.15.59-.22.96-.35,1.71-1.34,1.37-2.41-.3-.94-1.38-1.74-2.41-1.37-1.12.41-2.26.85-3.1,1.73s-1.35,2.07-1.61,3.27c-.51,2.38-.38,4.88.41,7.18,1.09-.63,2.18-1.27,3.27-1.9-.14-.16-.13-.13.03.07-.05-.08-.11-.16-.16-.24-.08-.12-.15-.25-.23-.37-.27-.41-.57-.79-.96-1.09-.28-.22-.55-.37-.86-.51-.11-.05-.22-.12-.34-.16-.18-.11-.14-.08.11.1.17.25.2.28.1.1-.39.96-.78,1.91-1.17,2.87.73-.27,1.45-.63,1.83-1.36.41-.76.47-1.84-.07-2.56-.61-.82-1.72-1.32-2.68-.7-.81.52-1.36,1.8-.7,2.68h0Z"/><path class="cls-3" d="m157.81,25.75c.61-.28.91-.92,1.3-1.43l-.12.15c.24-.31.51-.59.81-.85.14-.12.22-.35.22-.53s-.08-.4-.22-.53-.33-.23-.53-.22-.37.08-.53.22c-.27.24-.53.5-.75.78-.24.3-.45.63-.68.94l.12-.15c-.09.11-.18.22-.29.3l.15-.12c-.07.06-.15.1-.23.14-.16.07-.3.28-.34.45-.05.18-.03.42.08.58s.26.3.45.34c.21.05.39.01.58-.08h0Z"/><path class="cls-3" d="m182.63,31.61c.44,1.14.75,2.33.94,3.55.06.39.57.64.92.52.42-.14.59-.51.52-.92-.18-1.21-.49-2.4-.94-3.55-.14-.36-.51-.66-.92-.52-.36.11-.67.53-.52.92h0Z"/><path class="cls-3" d="m185.87,30.5c.13.25.08.58.07.84-.02.33-.04.65-.08.98-.08.72-.23,1.43-.42,2.13-.18.64-.41,1.27-.56,1.91-.17.7-.29,1.42-.4,2.13-.07.4.1.81.52.92.36.1.86-.12.92-.52.13-.79.26-1.59.46-2.37.19-.72.45-1.43.63-2.16.19-.78.31-1.58.39-2.38s.13-1.55-.23-2.25c-.44-.86-1.73-.1-1.3.76h0Z"/><path class="cls-3" d="m182.38,31.25c.36,1.34.81,2.66,1.01,4.03.09.64.12,1.3.06,1.95-.07.69-.22,1.34,0,2.03.29.92,1.74.52,1.45-.4-.2-.62.04-1.3.07-1.93.04-.68-.03-1.36-.13-2.04-.21-1.37-.65-2.69-1.01-4.03-.25-.93-1.7-.54-1.45.4h0Z"/><path class="cls-3" d="m140.46,30.77c.43.47.9.96,1.48,1.23.72.34,1.49.4,2.22.06.36-.17.48-.71.27-1.03-.24-.37-.65-.45-1.03-.27-.1.04.03-.02.06-.02-.03,0-.06.02-.08.03-.04.01-.13.05-.17.04.02,0,.18-.01.07-.01-.03,0-.06,0-.09,0-.06,0-.12,0-.18,0-.11,0,.04,0,.06,0-.03-.01-.06-.01-.09-.02-.06-.01-.12-.03-.18-.05-.03,0-.06-.02-.09-.03-.1-.03.02,0,.05.02-.06-.03-.12-.06-.18-.09-.11-.06-.22-.13-.32-.21-.08-.05.11.09.04.03-.02-.02-.05-.04-.07-.06-.05-.04-.1-.08-.14-.13-.19-.18-.37-.37-.55-.57-.26-.29-.8-.29-1.06,0-.29.31-.28.75,0,1.06h0Z"/><path class="cls-3" d="m131.75,32.81c.45-1.1.9-2.26,1.56-3.26.3-.46.68-.86,1.07-1.25.34-.34.72-.85,1.18-1.03.38-.14.64-.51.52-.92-.1-.36-.54-.67-.92-.52-.67.25-1.15.72-1.65,1.22s-.97,1-1.37,1.57c-.38.53-.66,1.13-.93,1.72-.32.68-.61,1.38-.9,2.07-.15.37.17.82.52.92.43.12.77-.15.92-.52h0Z"/><path class="cls-3" d="m137.19,48.04s-.01-.03-.02-.05l.08.18c-.07-.17-.12-.35-.15-.53l.03.2c-.02-.18-.02-.37,0-.55l-.03.2c.02-.13.05-.26.09-.38.06-.18.02-.42-.08-.58s-.27-.3-.45-.34c-.19-.04-.41-.03-.58.08s-.28.26-.34.45c-.1.31-.15.65-.13.97.01.19.04.38.08.56s.12.37.2.55c.07.16.29.3.45.34.18.05.42.03.58-.08s.3-.26.34-.45l.03-.2c0-.14-.03-.26-.1-.38h0Z"/><path class="cls-3" d="m126.85,52.74c-.45.2-.92.39-1.36.61s-.88.55-1.24.92c-.27.28-.3.78,0,1.06s.77.3,1.06,0c.13-.14.27-.26.42-.38l-.15.12c.6-.47,1.34-.73,2.03-1.04.16-.07.3-.29.34-.45.05-.18.03-.42-.08-.58s-.26-.3-.45-.34c-.21-.05-.38-.01-.58.08h0Z"/><path class="cls-3" d="m124.38,54.17c-1.05.82-2.01,1.94-2.2,3.3-.03.21-.04.39.08.58.09.16.27.3.45.34.19.04.41.03.58-.08.15-.1.32-.26.34-.45.02-.14.05-.28.09-.42.02-.07.04-.15.07-.22.01-.03.02-.06.04-.1.03-.1-.01,0-.02.04,0-.07.07-.15.1-.21s.06-.12.1-.18c.08-.13.16-.26.25-.39.01-.02.09-.11.02-.03s0-.01.02-.03c.05-.06.1-.12.15-.18.1-.11.2-.22.31-.32.22-.21.45-.41.7-.6.14-.11.22-.36.22-.53,0-.18-.08-.4-.22-.53s-.33-.23-.53-.22c-.21,0-.36.09-.53.22h0Z"/><path class="cls-3" d="m125.03,61.46c.97,0,.97-1.5,0-1.5s-.97,1.5,0,1.5h0Z"/><path class="cls-3" d="m127.25,57.31s-.04-.05-.06-.07c.02.01.1.13.04.04s.01.02.02.06c0-.03-.03-.07-.03-.11,0-.03-.01-.06-.02-.09-.03-.09.01.16,0,.06,0-.06,0-.13,0-.19,0-.13,0-.27.02-.4,0-.07.03-.15.02-.22,0,.05-.03.13,0,.04.01-.04.02-.09.03-.13,0-.02.05-.13,0-.04-.05.09.01-.02.02-.03.02-.03.04-.06.06-.09.01-.02.08-.12.02-.03s.01-.01.03-.03c.02-.03.05-.05.07-.08.05-.06.11-.12.16-.18.1-.1.21-.2.32-.29s-.08.05,0,0c.03-.02.06-.04.09-.06.07-.05.13-.09.2-.13.33-.21.49-.68.27-1.03s-.67-.49-1.03-.27-.67.46-.95.75c-.32.33-.62.71-.73,1.16-.09.36-.13.78-.11,1.16.02.47.16.91.5,1.25.28.28.79.3,1.06,0s.3-.76,0-1.06h0Z"/><path class="cls-3" d="m136.23,51.83s.07-.03.1-.04l-.18.08c.53-.22,1.08-.37,1.65-.45l-.2.03c.07,0,.14-.02.22-.02.2-.02.38-.07.53-.22.13-.13.23-.34.22-.53s-.07-.4-.22-.53c-.14-.13-.34-.24-.53-.22-.4.04-.81.1-1.2.21s-.77.25-1.14.41c-.16.07-.3.29-.34.45-.05.18-.03.42.08.58s.26.3.45.34l.2.03c.14,0,.26-.03.38-.1h0Z"/><path class="cls-3" d="m135.52,50.54c-.2.2-.4.4-.62.58-.06.05-.11.09-.17.14-.03.02-.05.04-.08.06,0,0-.14.11-.04.03.09-.07,0,0-.02.02-.03.02-.06.05-.1.07-.06.04-.12.09-.18.13-.47.33-.97.61-1.5.85-.16.07-.3.28-.34.45-.05.18-.03.42.08.58.24.37.64.44,1.03.27,1.12-.51,2.14-1.24,3-2.12.27-.28.3-.78,0-1.06s-.77-.3-1.06,0h0Z"/><path class="cls-3" d="m150.46,60.7c.12.47.25.93.4,1.38s.31.97.55,1.4.66.74,1.01,1.08.72.68,1.08,1.02c.29.27.78.31,1.06,0s.31-.77,0-1.06c-.34-.32-.68-.64-1.02-.96-.17-.16-.34-.32-.51-.48-.14-.14-.27-.25-.33-.35-.01-.02-.12-.24-.06-.11-.04-.1-.08-.21-.12-.31-.08-.22-.16-.44-.23-.66-.15-.44-.28-.89-.39-1.34-.09-.38-.54-.65-.92-.52s-.63.51-.52.92h0Z"/><path class="cls-3" d="m148.66,91.33s.05.05.07.08l-.12-.15c.04.06.08.12.1.18l-.08-.18c.08.21.11.42.17.64.08.26.19.52.32.76.28.48.67.88,1.13,1.19.33.22.84.08,1.03-.27.2-.38.08-.79-.27-1.03-.06-.04-.12-.08-.18-.13l.15.12c-.18-.14-.33-.3-.47-.48l.12.15c-.14-.19-.26-.39-.36-.61l.08.18c-.09-.21-.13-.44-.19-.66-.08-.32-.22-.62-.45-.86-.28-.28-.79-.3-1.06,0s-.29.76,0,1.06h0Z"/><path class="cls-3" d="m151.58,86.9c.57,1.12.87,2.37,1.38,3.52.26.57.62,1.04,1.13,1.4.47.33,1.03.53,1.58.68.93.26,1.33-1.19.4-1.45-.49-.14-.82-.24-1.22-.53.07.05-.05-.04-.06-.06-.04-.04-.08-.07-.11-.11-.09-.09-.08-.07-.16-.2-.13-.21-.24-.45-.33-.67-.46-1.11-.76-2.27-1.31-3.35-.18-.36-.69-.46-1.03-.27-.37.21-.45.66-.27,1.03h0Z"/><path class="cls-3" d="m157.06,26.26c.23,0,.47-.06.66-.17.05-.03.09-.07.14-.1s.09-.07.13-.11c.08-.09.15-.18.22-.28.14-.21.28-.41.38-.64.05-.09.08-.18.09-.28.02-.1.02-.2-.01-.3-.02-.1-.07-.18-.13-.26-.05-.08-.12-.15-.21-.19-.17-.09-.38-.14-.58-.08l-.18.08c-.11.07-.2.16-.27.27-.11.25-.27.49-.43.71l.12-.15s-.07.08-.11.11l.15-.12s-.07.05-.12.07l.18-.08s-.09.03-.14.04l.2-.03s-.06,0-.09,0c-.1,0-.2.02-.29.06-.09.03-.17.08-.24.16-.07.07-.12.15-.16.24-.05.09-.07.19-.06.29,0,.19.07.4.22.53s.32.21.53.22h0Z"/><path class="cls-3" d="m192.83,46.41c.04.07.08.15.11.22l-.08-.18c.12.29.2.6.24.92l-.03-.2c.06.43.06.87.07,1.3,0,.39.34.77.75.75s.75-.33.75-.75c0-.97-.05-1.95-.52-2.82-.19-.35-.69-.48-1.03-.27-.35.23-.47.66-.27,1.03h0Z"/><path class="cls-3" d="m193.16,48.49c0,.85.02,1.7.03,2.55,0,.39.34.77.75.75s.75-.33.75-.75c0-.85-.02-1.7-.03-2.55,0-.39-.34-.77-.75-.75s-.75.33-.75.75h0Z"/><path class="cls-3" d="m175.91,28.82c.12-.06.24-.12.37-.18l-.18.08c.54-.22,1.11-.35,1.68-.47.38-.08.64-.55.52-.92-.13-.41-.51-.61-.92-.52-.77.16-1.53.35-2.23.72-.35.19-.48.69-.27,1.03.23.35.66.47,1.03.27h0Z"/><path class="cls-1" d="m146.27,41.86l-.22-.62c-.05-.2-.14-.37-.27-.51-.11-.16-.25-.29-.42-.39-.17-.11-.36-.17-.56-.18-.2-.04-.4-.04-.6.03l-.36.15c-.23.13-.4.31-.54.54l-.15.36c-.07.27-.07.53,0,.8l.22.62c.05.2.14.37.27.51.11.16.25.29.42.39.17.11.36.17.56.18.2.04.4.04.6-.03l.36-.15c.23-.13.4-.31.54-.54l.15-.36c.07-.27.07-.53,0-.8h0Z"/><path class="cls-1" d="m139.6,48.74c-.07.48,0,.91.22,1.35.17.34.44.63.68.93.03.03.05.07.08.1-.04-.05-.04-.06,0,0,.05.07.09.14.14.21s.08.15.12.22c.04.07.02.05,0,0,.01.04.03.08.04.12.06.17.1.34.13.51.02.11,0-.12,0-.01,0,.04,0,.08,0,.12,0,.09,0,.19,0,.28-.02.39.36.77.75.75.42-.02.73-.33.75-.75.03-.74-.18-1.53-.6-2.14-.12-.17-.25-.34-.39-.5-.05-.06-.11-.13-.16-.19-.05-.07-.05-.07,0,0-.03-.03-.05-.07-.07-.1-.05-.07-.09-.13-.13-.2-.02-.03-.04-.07-.06-.11.03.09.04.09,0,.01-.02-.07-.06-.15-.06-.23,0,.28.04-.23,0,.05.06-.39-.1-.83-.52-.92-.36-.08-.86.11-.92.52h0Z"/><path class="cls-1" d="m140.92,51.71c0,.18,0,.35-.02.53l.03-.2c-.03.22-.09.44-.17.65-.1.26-.18.51-.17.79,0,.19.08.39.22.53s.34.23.53.22c.4-.02.75-.33.75-.75,0-.04,0-.08,0-.12l-.03.2c.04-.28.18-.53.25-.81.09-.33.13-.69.11-1.03,0-.2-.08-.39-.22-.53-.13-.13-.34-.23-.53-.22s-.4.07-.53.22-.23.33-.22.53h0Z"/><path class="cls-1" d="m148.66,50.73c.04-.24.1-.48.2-.7l-.08.18c.1-.23.22-.44.37-.63l-.12.15c.1-.13.21-.25.33-.36.29-.27.29-.79,0-1.06-.31-.28-.75-.28-1.06,0-.28.26-.53.58-.71.92s-.32.72-.38,1.1c-.03.1-.04.2-.01.3,0,.1.03.19.09.28.09.16.27.3.45.34.19.04.41.03.58-.08.15-.1.32-.26.34-.45h0Z"/><path class="cls-2" d="m190.52,53.81c.06,0,.12.03.18.05l-.18-.08c.08.04.15.08.22.14l-.15-.12c.24.19.46.4.65.64l-.12-.15c.13.16.23.34.31.53l-.08-.18c.06.15.1.3.13.46l-.03-.2s0,.09.01.14c.01.2.08.39.22.53.13.13.34.23.53.22.39-.02.77-.33.75-.75-.02-.36-.1-.67-.25-.99-.12-.26-.29-.49-.47-.72-.14-.18-.31-.34-.48-.49-.25-.21-.53-.43-.86-.48-.21-.03-.39-.03-.58.08-.16.09-.3.27-.34.45-.04.19-.03.41.08.58.1.15.26.32.45.34h0Z"/><path class="cls-2" d="m194.69,54.18c.09.43.45.74.8.96.31.19.64.34.99.46.18.06.42.02.58-.08s.3-.27.34-.45c.04-.19.03-.41-.08-.58l-.12-.15c-.09-.09-.2-.16-.33-.19-.08-.03-.16-.06-.24-.09l.18.08c-.26-.11-.53-.24-.75-.42l.15.12c-.07-.05-.13-.11-.18-.17l.12.15s-.05-.08-.07-.13l.08.18s-.02-.06-.03-.09c-.04-.18-.19-.36-.34-.45-.16-.09-.4-.13-.58-.08s-.36.17-.45.34c-.1.18-.12.37-.08.58h0Z"/><path class="cls-2" d="m197.49,58.07c.01-.07.07-.14-.02.03.03-.05.03-.04-.01.01-.04.05-.05.06,0,.02.02-.02.12-.1.02-.02-.11.08.02-.01.04-.03.17-.12.35-.23.49-.39.38-.44.5-1,.41-1.57-.17-1.01-1.06-1.6-1.83-2.14-.32-.23-.85-.07-1.03.27-.2.39-.07.78.27,1.03.16.11.32.22.48.34.02.01.15.11.06.05s.04.04.06.05c.07.06.14.12.21.19.03.03.06.06.09.1s.13.11,0,0c.06.06.1.15.14.22.01.02.07.16.03.05s.02.05.02.06c.01.04.02.09.03.13.03.08,0-.19,0-.03,0,.03,0,.06,0,.1,0,.02,0,.05,0,.07,0,.06,0,.03.01-.08-.01.02-.01.07-.02.09,0,.02-.01.05-.02.07-.02.05,0,.03.03-.07-.02.02-.03.06-.05.08-.07.13.11-.1,0,0-.02.02-.05.04-.07.06.09-.12.1-.07.04-.03-.35.24-.72.5-.81.95-.08.38.11.83.52.92.37.09.84-.11.92-.52h0Z"/><path class="cls-2" d="m169.73,70.17c.17.98.49,2.06,1.45,2.53.51.25,1.07.28,1.6.1.24-.08.46-.18.69-.28.02-.01.05-.02.07-.03-.09.04-.11.05-.06.02.05-.02.1-.04.15-.06.11-.04.22-.07.33-.1.38-.09.64-.55.52-.92-.13-.4-.51-.62-.92-.52-.18.04-.35.1-.53.17-.13.06-.27.11-.4.17-.02,0-.17.07-.06.03s-.03.01-.06.02c-.08.03-.16.06-.25.08-.05.01-.1.02-.15.04-.14.03.12,0,.02,0-.04,0-.09,0-.13,0-.14,0,.11.03.02,0-.04-.01-.08-.02-.12-.03-.02,0-.05-.01-.07-.02-.05-.02-.03-.01.07.03,0,0-.21-.1-.21-.13.08.06.1.08.06.04-.01-.01-.02-.02-.04-.03-.03-.03-.06-.06-.09-.09-.03-.03-.06-.08-.1-.11.06.05.08.1.02.01-.05-.07-.09-.15-.13-.23-.01-.03-.03-.05-.04-.08l.03.07s-.05-.14-.06-.17c-.03-.09-.06-.19-.08-.29-.05-.21-.09-.43-.13-.64-.07-.39-.56-.64-.92-.52-.42.14-.6.51-.52.92h0Z"/><path class="cls-2" d="m195.31,72.42s-.01-.09-.02-.13l.03.2c-.05-.39-.05-.78,0-1.17l-.03.2c.02-.16.05-.31.09-.46.05-.19.03-.41-.08-.58-.09-.16-.27-.3-.45-.34-.19-.04-.41-.03-.58.08s-.3.26-.34.45c-.09.35-.14.72-.15,1.08s.02.73.08,1.09c.03.17.2.36.34.45.16.09.4.13.58.08s.36-.17.45-.34l.08-.18c.04-.13.04-.27,0-.4h0Z"/><path class="cls-2" d="m195.49,67.08c0,.32.07.64.03.95l.03-.2c-.01.09-.04.18-.07.27-.03.1-.04.2-.01.3,0,.1.03.19.09.28.09.16.27.3.45.34.19.04.41.03.58-.08l.15-.12c.09-.09.16-.2.19-.33.1-.25.12-.53.11-.79,0-.21-.04-.42-.04-.63,0-.19-.08-.39-.22-.53-.13-.13-.34-.23-.53-.22s-.4.07-.53.22-.22.33-.22.53h0Z"/><path class="cls-2" d="m196.37,68.99c.2-.04.38-.15.56-.24l-.18.08c.08-.03.17-.05.25-.07l-.2.03c.28-.03.56-.05.83-.11s.52-.17.77-.28c.16-.08.3-.28.34-.45.05-.18.03-.42-.08-.58s-.26-.3-.45-.34c-.21-.05-.39-.02-.58.08-.04.02-.08.04-.12.06l.18-.08c-.24.1-.48.17-.73.2l.2-.03c-.22.03-.45.03-.67.08-.2.05-.38.16-.57.24l.18-.08s-.09.03-.14.04c-.18.04-.36.19-.45.34-.09.16-.13.4-.08.58s.17.36.34.45c.19.1.37.12.58.08h0Z"/><path class="cls-2" d="m193.03,67.04v-.02c0,.07-.02.13-.02.2,0-.02,0-.03.02-.05l-.08.18s.03-.06.05-.08l-.12.15c.15-.19.33-.36.52-.51l-.15.12c.33-.25.69-.45,1.07-.61.16-.07.3-.29.34-.45.05-.18.03-.42-.08-.58s-.26-.3-.45-.34l-.2-.03c-.14,0-.26.03-.38.1-.35.15-.69.33-.99.55-.19.14-.39.29-.55.46-.06.07-.12.13-.18.2-.06.08-.13.16-.18.25-.09.16-.11.28-.13.46s.1.41.22.53c.13.13.34.23.53.22s.4-.07.53-.22l.12-.15c.07-.12.1-.24.1-.38h0Z"/><path class="cls-2" d="m195.45,67.06c-.1-.07-.02.04-.03,0,.03.07.05.19.06.24.04.25.02.49-.04.72-.12.46-.42.85-.71,1.23s-.55.81-.82,1.22c-.23.36-.64.64-1,.89-.33.23-.48.66-.27,1.03.19.33.69.5,1.03.27.57-.39,1.12-.81,1.52-1.39.17-.25.31-.53.48-.77.19-.26.39-.52.58-.78.42-.58.69-1.21.74-1.93.06-.76-.13-1.56-.77-2.02-.33-.24-.83-.06-1.03.27-.22.38-.06.79.27,1.03h0Z"/><path class="cls-2" d="m192.73,60.28h-.02c.05-.02.1-.06.15-.1-.05.04-.1.07-.16.09l.18-.08c-.1.04-.21.07-.32.08l.2-.03c-.15.02-.3.04-.45.02l.2.03s-.07-.01-.1-.03l.18.08c-.15-.07-.3-.16-.45-.24-.17-.1-.39-.13-.58-.08-.17.05-.36.18-.45.34-.09.17-.14.38-.08.58s.17.35.34.45c.14.08.28.16.42.23.19.09.33.13.54.14.07,0,.15,0,.22,0,.19-.01.38-.03.56-.08.12-.03.23-.08.34-.13s.21-.14.31-.22c.14-.11.22-.36.22-.53,0-.18-.08-.4-.22-.53s-.33-.23-.53-.22l-.2.03c-.13.04-.24.1-.33.19h0Z"/><path class="cls-2" d="m193.91,61.34c.05-.06.11-.12.17-.17l-.15.12c.33-.25.72-.4,1.08-.6.39-.22.78-.5,1.06-.85.13-.16.22-.31.22-.53,0-.18-.08-.4-.22-.53s-.33-.23-.53-.22c-.18,0-.41.07-.53.22s-.27.3-.43.42l.15-.12c-.28.21-.58.37-.89.53-.35.18-.74.35-.99.66-.13.16-.22.31-.22.53,0,.18.08.4.22.53s.33.23.53.22c.19,0,.41-.07.53-.22h0Z"/><path class="cls-2" d="m178.91,76.23c-.08.07-.15.15-.22.23-.1.13-.2.26-.28.41s-.14.3-.19.45c-.05.16-.07.33-.09.5,0,.1.02.2.06.29.03.09.08.17.16.24.07.07.15.12.24.16.09.05.19.07.29.06.19,0,.4-.07.53-.22l.12-.15c.07-.12.1-.24.1-.38,0-.02,0-.03,0-.05l-.03.2c.02-.14.06-.28.11-.42l-.08.18c.06-.13.13-.25.21-.36l-.12.15c.07-.08.14-.16.22-.23.07-.07.12-.15.16-.24.05-.09.07-.19.06-.29,0-.1-.02-.2-.06-.29-.03-.09-.08-.17-.16-.24-.14-.13-.33-.23-.53-.22l-.2.03c-.13.04-.24.1-.33.19h0Z"/></svg>